<?xml
version="1.0" encoding="utf-8"?>
<svg xmlns="http://www.w3.org/2000/svg" xmlns:xlink="http://www.w3.org/1999/xlink">
    <symbol viewBox="0 0 32 32" id="icon-Entypo-rss-icon" xmlns="http://www.w3.org/2000/svg">
        <path d="M0 0v4.9c14.8 0 26.7 12 26.7 26.7h4.9C31.7 14.2 17.5 0 0 0zm0 9.9v4.9c9.3 0 16.9 7.5 16.9 16.9h4.9C21.8 19.6 12 9.9 0 9.9zm4.7 12.3c-2.6 0-4.7 2.1-4.7 4.7s2.1 4.7 4.7 4.7 4.7-2.1 4.7-4.7c.1-2.6-2.1-4.7-4.7-4.7z"/>
    </symbol>
    <symbol viewBox="0 0 16 16" id="icon-add-user" xmlns="http://www.w3.org/2000/svg">
        <path d="M12.791 15.303c.009-1.703-1.749-2.711-3.454-3.446-1.698-.731-2.241-1.347-2.241-2.667 0-.791.518-.534.746-1.985.096-.602.554-.01.642-1.383 0-.547-.25-.683-.25-.683s.127-.81.177-1.434A2.471 2.471 0 006.57 1.229C6.304.956 6.124.523 6.944.09 5.152.007 4.735.944 3.781 1.634c-.812.605-1.031 1.562-.992 2.072.052.624.178 1.434.178 1.434s-.251.136-.251.683c.088 1.374.547.782.642 1.383.227 1.451.746 1.194.746 1.985 0 1.32-.17 1.768-1.869 2.499C.53 12.424 0 13.6.009 15.303.011 15.813 0 16 0 16h12.8s-.011-.187-.009-.697zM13.6 8V5.6H12V8H9.6v1.6H12V12h1.6V9.6H16V8h-2.4z"/>
    </symbol>
    <symbol viewBox="0 0 16 16" id="icon-archive" xmlns="http://www.w3.org/2000/svg">
        <path d="M11.185 1.6h-6.37s-.797 0-.797.8h7.964c0-.8-.797-.8-.797-.8zM13.574 4c0-.8-.796-.8-.796-.8H3.221s-.796 0-.796.8v.8h11.149V4zm1.592.8l-.47-.474V5.6H1.304V4.326L.833 4.8c-.471.474-.809.6-.619 1.6.189.997 1.103 6.461 1.239 7.2.149.811.974.8.974.8h11.149s.824.011.974-.8c.136-.739 1.05-6.203 1.239-7.2.188-1-.15-1.126-.622-1.6zM11.2 9.598a.802.802 0 01-.802.802H5.603a.802.802 0 01-.802-.802V8h.8v1.6h4.8V8h.8v1.598z"/>
    </symbol>
    <symbol viewBox="0 0 42.16 39.093" id="icon-arrow-right" xmlns="http://www.w3.org/2000/svg">
        <path d="M41.304 17.464L25.027.857a2.89 2.89 0 00-4.117 0 2.963 2.963 0 00-.002 4.159l10.676 11.62H2.908a2.909 2.909 0 000 5.817h28.677L20.91 34.073a2.962 2.962 0 000 4.16 2.892 2.892 0 004.117 0l16.277-16.608a2.963 2.963 0 000-4.16"/>
    </symbol>
    <symbol viewBox="0 0 16 16" id="icon-arrows" xmlns="http://www.w3.org/2000/svg">
        <path d="M16 8q0 .232-.17.402l-2.286 2.286q-.17.17-.402.17t-.402-.17-.17-.402V9.143H9.141v3.429h1.143q.232 0 .402.17t.17.402-.17.402L8.4 15.832q-.17.17-.402.17t-.402-.17L5.31 13.546q-.17-.17-.17-.402t.17-.402.402-.17h1.143V9.143H3.426v1.143q0 .232-.17.402t-.402.17-.402-.17L.166 8.402q-.17-.17-.17-.402t.17-.402l2.286-2.286q.17-.17.402-.17t.402.17.17.402v1.143h3.429V3.428H5.712q-.232 0-.402-.17t-.17-.402.17-.402L7.596.168q.17-.17.402-.17t.402.17l2.286 2.286q.17.17.17.402t-.17.402-.402.17H9.141v3.429h3.429V5.714q0-.232.17-.402t.402-.17.402.17l2.286 2.286q.17.17.17.402z"/>
    </symbol>
    <symbol viewBox="0 0 16 16" id="icon-attachment" xmlns="http://www.w3.org/2000/svg">
        <path d="M4.482 15.84a3.821 3.821 0 01-2.702-1.152c-1.356-1.373-1.734-3.769.167-5.693a28517.9 28517.9 0 007.798-7.896c.79-.8 1.796-1.11 2.758-.848a2.853 2.853 0 011.974 1.998c.258.976-.047 1.994-.837 2.794l-7.458 7.552c-.426.431-.907.686-1.39.738a1.52 1.52 0 01-1.256-.428c-.579-.589-.662-1.694.302-2.67l5.238-5.304c.215-.218.564-.218.779 0s.215.571 0 .789l-5.239 5.305c-.453.458-.494.895-.302 1.091a.429.429 0 00.361.107c.226-.023.485-.173.727-.417l7.458-7.551c.512-.518.708-1.128.552-1.716a1.73 1.73 0 00-1.194-1.21c-.581-.158-1.184.042-1.696.56L2.724 9.785c-1.453 1.471-1.105 3.165-.167 4.114s2.61 1.303 4.063-.17l7.798-7.896c.215-.218.564-.218.779 0s.215.571 0 .79l-7.798 7.896c-.919.93-1.949 1.32-2.918 1.32z"/>
    </symbol>
    <symbol viewBox="0 0 20 20" id="icon-bar-graph" xmlns="http://www.w3.org/2000/svg">
        <path d="M17 1h-2a1 1 0 00-1 1v16.992h4V2a1 1 0 00-1-1zm-6 6H9a1 1 0 00-1 1v10.992h4V8a1 1 0 00-1-1zm-6 6H3a1 1 0 00-1 1v4.992h4V14a1 1 0 00-1-1z"/>
    </symbol>
    <symbol viewBox="0 0 16 16" id="icon-bell" xmlns="http://www.w3.org/2000/svg">
        <path d="M11.72 6.81C9.896 2.884 8.947 1.393 5.967 1.456c-1.062.022-.807-.77-1.617-.47-.808.3-.114.739-.942 1.418C1.086 4.31 1.3 6.074 2.377 10.276c.454 1.77-1.094 1.857-.482 3.572.447 1.251 3.743 1.775 7.22.486s5.669-3.851 5.222-5.102c-.612-1.716-1.849-.769-2.618-2.422zm-2.981 6.466c-3.106 1.152-5.658.475-5.766.174-.186-.52 1.002-2.253 4.553-3.57s5.532-.829 5.739-.249c.122.343-1.42 2.493-4.526 3.646zm-.998-2.795c-1.623.602-2.751 1.291-3.482 1.911.514.467 1.478.581 2.437.225 1.222-.452 1.973-1.493 1.676-2.323l-.013-.029c-.201.066-.406.137-.618.216z"/>
    </symbol>
    <symbol viewBox="0 0 16 16" id="icon-block" xmlns="http://www.w3.org/2000/svg">
        <path d="M8 .32a7.68 7.68 0 100 15.361c4.241 0 7.68-3.438 7.68-7.681S12.241.32 8 .32zM1.919 8a6.08 6.08 0 019.934-4.702l-8.555 8.555A6.054 6.054 0 011.92 7.999zm6.08 6.079a6.048 6.048 0 01-3.852-1.378l8.555-8.554a6.08 6.08 0 01-4.703 9.932z"/>
    </symbol>
    <symbol viewBox="0 0 16 16" id="icon-book" xmlns="http://www.w3.org/2000/svg">
        <path d="M13.6 4.76v8.281c0 .418-.362.617-.8.928-.352.25-.8-.06-.8-.47V5.408c0-.169-.059-.33-.251-.428s-6.19-3.252-6.19-3.252c-.097-.036-.519-.302-1.082-.013-.535.275-.826.574-.901.715l6.544 3.586c.174.091.281.232.281.413v8.642a.536.536 0 01-.295.468.59.59 0 01-.266.062.588.588 0 01-.309-.083c-.172-.105-6.219-3.813-6.618-4.054-.192-.115-.417-.351-.422-.526l-.09-8.229c0-.158-.018-.438.231-.826C3.19 1.016 5.135.029 6.12.541l7.199 3.644c.174.09.282.269.282.576z"/>
    </symbol>
    <symbol viewBox="0 0 16 16" id="icon-bookmark" xmlns="http://www.w3.org/2000/svg">
        <path d="M11.2 1.6v13.6L8 12l-3.2 3.2V1.6c0-.442.468-.816.8-.8h4.8c.551-.016.8.358.8.8z"/>
    </symbol>
    <symbol viewBox="0 0 16 16" id="icon-bookmarks" xmlns="http://www.w3.org/2000/svg">
        <path d="M12 0H8.8a.8.8 0 00-.8.8l.018.178c.882 0 1.6.718 1.6 1.6v9.087l.782-.945 2.4 2.88V.8A.8.8 0 0012 0zM7.218 2.4H4a.8.8 0 00-.8.8V16l2.4-2.88L8 16V3.2c0-.442-.339-.8-.782-.8z"/>
    </symbol>
    <symbol viewBox="0 0 16 16" id="icon-box" xmlns="http://www.w3.org/2000/svg">
        <path d="M14.719 1.6H1.28a.479.479 0 00-.48.48V4h14.4V2.08a.48.48 0 00-.481-.48zM1.6 13.28c0 .616.503 1.12 1.119 1.12h10.56c.616 0 1.12-.505 1.12-1.12V4.8H1.6v8.48zm4-6.88h4.8V8H5.6V6.4z"/>
    </symbol>
    <symbol viewBox="0 0 16 16" id="icon-calendar" xmlns="http://www.w3.org/2000/svg">
        <path d="M13.6 2.4h-.8V4h-2.4V2.4H5.6V4H3.2V2.4h-.8C1.519 2.4.8 3.12.8 4v9.6c0 .88.719 1.6 1.6 1.6h11.2c.88 0 1.6-.72 1.6-1.6V4c0-.88-.72-1.6-1.6-1.6zm0 11.2H2.4V7.2h11.2v6.4zM5.2.8H3.6v2.8h1.6V.8zm7.2 0h-1.6v2.8h1.6V.8z"/>
    </symbol>
    <symbol viewBox="0 0 16 16" id="icon-camera" xmlns="http://www.w3.org/2000/svg">
        <path d="M8 6.4a2.4 2.4 0 100 4.8 2.4 2.4 0 000-4.8zM14.4 4h-1.92a.71.71 0 01-.631-.456l-.497-1.489a.713.713 0 00-.632-.455H5.28a.71.71 0 00-.631.454l-.498 1.49A.71.71 0 013.52 4H1.6C.72 4 0 4.72 0 5.6v7.2c0 .88.72 1.6 1.6 1.6h12.8c.88 0 1.6-.72 1.6-1.6V5.6c0-.88-.72-1.6-1.6-1.6zM8 12.8c-2.21 0-4-1.79-4-4s1.79-4 4-4a4 4 0 110 8zm6-6.24a.56.56 0 110-1.12.56.56 0 010 1.12z"/>
    </symbol>
    <symbol viewBox="0 0 16 16" id="icon-chat" xmlns="http://www.w3.org/2000/svg">
        <path d="M4.64 9.76V4.8H1.6C.72 4.8 0 5.52 0 6.4v4.8c0 .88.72 1.6 1.6 1.6h.8v2.4l2.4-2.4h4c.88 0 1.6-.72 1.6-1.6V9.744a.769.769 0 01-.16.017l-5.6-.001zM14.4.8H7.2c-.88 0-1.6.72-1.6 1.6v6.4h5.6l2.4 2.4V8.8h.8c.88 0 1.6-.719 1.6-1.6V2.4c0-.88-.72-1.6-1.6-1.6z"/>
    </symbol>
    <symbol viewBox="0 0 16 16" id="icon-check" xmlns="http://www.w3.org/2000/svg">
        <path d="M6.635 13.598c-.348 0-.678-.162-.889-.442L2.888 9.379a1.114 1.114 0 111.778-1.345l1.881 2.483 4.729-7.594a1.116 1.116 0 011.894 1.18l-5.587 8.968a1.113 1.113 0 01-.896.525c-.018.002-.034.002-.051.002z"/>
    </symbol>
    <symbol viewBox="0 0 16 16" id="icon-chevron-down" xmlns="http://www.w3.org/2000/svg">
        <path d="M3.613 6.038c.349-.357.834-.385 1.261 0L8 9.036l3.126-2.998c.426-.385.913-.357 1.259 0 .349.356.326.958 0 1.292-.325.334-3.756 3.602-3.756 3.602a.88.88 0 01-1.261 0S3.938 7.665 3.612 7.33s-.349-.936 0-1.292z"/>
    </symbol>
    <symbol viewBox="0 0 16 16" id="icon-chevron-left" xmlns="http://www.w3.org/2000/svg">
        <path d="M9.962 3.613c.357.349.385.834 0 1.261L6.964 8l2.998 3.126c.385.426.357.913 0 1.259-.356.349-.958.326-1.292 0-.334-.325-3.602-3.756-3.602-3.756a.88.88 0 010-1.261s3.267-3.43 3.602-3.756.936-.349 1.292 0z"/>
    </symbol>
    <symbol viewBox="0 0 16 16" id="icon-chevron-left-white" xmlns="http://www.w3.org/2000/svg">
        <path d="M9.962 3.613c.357.349.385.834 0 1.261L6.964 8l2.998 3.126c.385.426.357.913 0 1.259-.356.349-.958.326-1.292 0-.334-.325-3.602-3.756-3.602-3.756a.88.88 0 010-1.261s3.267-3.43 3.602-3.756.936-.349 1.292 0z"/>
    </symbol>
    <symbol viewBox="0 0 16 16" id="icon-chevron-right" xmlns="http://www.w3.org/2000/svg">
        <path d="M7.33 3.613c.334.326 3.602 3.756 3.602 3.756a.88.88 0 010 1.261s-3.267 3.431-3.602 3.756c-.334.326-.936.349-1.292 0-.357-.347-.385-.833 0-1.259l2.998-3.126-2.998-3.126c-.385-.426-.357-.913 0-1.261s.958-.327 1.292 0z"/>
    </symbol>
    <symbol viewBox="0 0 16 16" id="icon-chevron-right-white" xmlns="http://www.w3.org/2000/svg">
        <path d="M7.33 3.613c.334.326 3.602 3.756 3.602 3.756a.88.88 0 010 1.261s-3.267 3.431-3.602 3.756c-.334.326-.936.349-1.292 0-.357-.347-.385-.833 0-1.259l2.998-3.126-2.998-3.126c-.385-.426-.357-.913 0-1.261s.958-.327 1.292 0z"/>
    </symbol>
    <symbol viewBox="0 0 16 16" id="icon-chevron-thin-down" xmlns="http://www.w3.org/2000/svg">
        <path d="M13.934 4.887c.218-.214.567-.214.783 0s.217.561 0 .775l-6.326 6.264a.558.558 0 01-.783 0L1.282 5.662c-.216-.214-.216-.561 0-.775s.567-.214.783 0L8 10.6l5.934-5.713z"/>
    </symbol>
    <symbol viewBox="0 0 16 16" id="icon-chevron-thin-left" xmlns="http://www.w3.org/2000/svg">
        <path d="M11.113 13.934c.214.218.214.567 0 .783s-.561.217-.775 0L4.074 8.391a.558.558 0 010-.783l6.264-6.326c.214-.216.561-.216.775 0s.214.567 0 .783L5.4 8l5.713 5.934z"/>
    </symbol>
    <symbol viewBox="0 0 16 16" id="icon-chevron-thin-right" xmlns="http://www.w3.org/2000/svg">
        <path d="M10.6 8L4.887 2.064a.558.558 0 010-.783.544.544 0 01.775 0l6.264 6.326a.558.558 0 010 .783l-6.264 6.326c-.214.217-.561.216-.775 0s-.214-.566 0-.783L10.6 7.999z"/>
    </symbol>
    <symbol viewBox="0 0 16 16" id="icon-chevron-thin-up" xmlns="http://www.w3.org/2000/svg">
        <path d="M2.066 11.113c-.218.214-.567.214-.783 0s-.217-.561 0-.775l6.326-6.264a.558.558 0 01.783 0l6.326 6.264c.216.214.216.561 0 .775s-.567.214-.782 0L8 5.4l-5.934 5.713z"/>
    </symbol>
    <symbol viewBox="0 0 16 16" id="icon-chevron-up" xmlns="http://www.w3.org/2000/svg">
        <path d="M12.387 9.962c-.349.357-.834.385-1.261 0L8 6.964 4.874 9.962c-.426.385-.913.357-1.259 0-.349-.356-.326-.958 0-1.292.325-.334 3.756-3.602 3.756-3.602a.88.88 0 011.261 0s3.43 3.267 3.756 3.602.349.936 0 1.292z"/>
    </symbol>
    <symbol viewBox="0 0 16 16" id="icon-circle-with-cross" xmlns="http://www.w3.org/2000/svg">
        <path d="M8 1.28a6.72 6.72 0 100 13.44A6.72 6.72 0 008 1.28zm3.831 9.169l-1.383 1.383L8 9.383l-2.449 2.448-1.383-1.383L6.618 8 4.169 5.551l1.383-1.382L8 6.617l2.449-2.449 1.383 1.383L9.382 8l2.449 2.449z"/>
    </symbol>
    <symbol viewBox="0 0 16 16" id="icon-circle-with-minus" xmlns="http://www.w3.org/2000/svg">
        <path d="M8 1.28a6.72 6.72 0 100 13.44A6.72 6.72 0 008 1.28zm4 7.52H4V7.2h8v1.6z"/>
    </symbol>
    <symbol viewBox="0 0 16 16" id="icon-circle-with-plus" xmlns="http://www.w3.org/2000/svg">
        <path d="M8 1.28a6.72 6.72 0 100 13.44A6.72 6.72 0 008 1.28zm4 7.52H8.8V12H7.2V8.8H4V7.2h3.2V4h1.6v3.2H12v1.6z"/>
    </symbol>
    <symbol viewBox="0 0 16 16" id="icon-clipboard" xmlns="http://www.w3.org/2000/svg">
        <path d="M12.48 1.6L11.52 4H4.48l-.96-2.4c-.617 0-1.12.503-1.12 1.12v12.16c0 .616.503 1.12 1.119 1.12h8.96c.616 0 1.12-.505 1.12-1.12V2.72A1.122 1.122 0 0012.48 1.6zm-1.6 1.6l.72-1.6H9.855L9.28 0H6.72l-.576 1.6H4.4l.719 1.6h5.761z"/>
    </symbol>
    <symbol viewBox="0 0 14 16" id="icon-clock-o" xmlns="http://www.w3.org/2000/svg">
        <path d="M8 4.857v4q0 .125-.08.205t-.205.08H4.858q-.125 0-.205-.08t-.08-.205v-.571q0-.125.08-.205t.205-.08h2V4.858q0-.125.08-.205t.205-.08h.571q.125 0 .205.08t.08.205zM11.714 8q0-1.321-.652-2.438T9.294 3.794t-2.438-.652-2.438.652T2.65 5.562 1.998 8t.652 2.438 1.768 1.768 2.438.652 2.438-.652 1.768-1.768T11.714 8zm2 0q0 1.866-.92 3.442t-2.496 2.496-3.442.92-3.442-.92-2.496-2.496T-.002 8t.92-3.442 2.496-2.496 3.442-.92 3.442.92 2.496 2.496.92 3.442z"/>
    </symbol>
    <symbol viewBox="0 0 16 16" id="icon-cog" xmlns="http://www.w3.org/2000/svg">
        <path d="M13.426 8c0-.839.517-1.5 1.294-1.954a7.18 7.18 0 00-.554-1.338c-.871.228-1.576-.113-2.169-.706-.593-.592-.774-1.297-.546-2.169a7.018 7.018 0 00-1.338-.553c-.454.776-1.276 1.292-2.114 1.292S6.34 2.056 5.885 1.28a6.945 6.945 0 00-1.337.553c.228.872.047 1.577-.547 2.169-.592.594-1.297.934-2.169.706-.228.422-.414.87-.553 1.338C2.055 6.5 2.571 7.161 2.571 8c0 .838-.516 1.659-1.292 2.114.14.467.325.915.553 1.338.872-.228 1.577-.047 2.169.546s.775 1.298.547 2.169c.422.228.87.414 1.338.554.454-.778 1.276-1.294 2.114-1.294s1.659.516 2.114 1.294a7.209 7.209 0 001.338-.554c-.228-.87-.047-1.575.546-2.169.593-.592 1.298-.933 2.169-.706a7.06 7.06 0 00.554-1.338c-.778-.455-1.295-1.116-1.295-1.954zM8 10.922a2.922 2.922 0 110-5.843 2.922 2.922 0 010 5.843z"/>
    </symbol>
    <symbol viewBox="0 0 16 16" id="icon-controller-paus" xmlns="http://www.w3.org/2000/svg">
        <path d="M12 2.4h-1.6c-.442 0-.8.038-.8.48v10.24c0 .442.358.48.8.48H12c.442 0 .8-.038.8-.48V2.88c0-.442-.358-.48-.8-.48zm-6.4 0H4c-.442 0-.8.038-.8.48v10.24c0 .442.358.48.8.48h1.6c.442 0 .8-.038.8-.48V2.88c0-.442-.358-.48-.8-.48z"/>
    </symbol>
    <symbol viewBox="0 0 16 16" id="icon-controller-play" xmlns="http://www.w3.org/2000/svg">
        <path d="M12 8.001c0 .239-.244.411-.244.411l-6.849 4.242c-.499.327-.907.085-.907-.535V3.881c0-.622.408-.862.908-.536l6.849 4.244c-.001 0 .243.172.243.411z"/>
    </symbol>
    <symbol viewBox="0 0 16 16" id="icon-controller-record" xmlns="http://www.w3.org/2000/svg">
        <path d="M8 2.4a5.6 5.6 0 100 11.2A5.6 5.6 0 008 2.4z"/>
    </symbol>
    <symbol viewBox="0 0 16 16" id="icon-controller-stop" xmlns="http://www.w3.org/2000/svg">
        <path d="M12.8 3.996v7.846a.958.958 0 01-.957.958H3.997a.798.798 0 01-.798-.798V4.156c0-.528.429-.957.957-.957h7.846c.44 0 .797.357.797.796z"/>
    </symbol>
    <symbol viewBox="0 0 16 16" id="icon-credit" xmlns="http://www.w3.org/2000/svg">
        <path d="M8.8 13.404V15.2H7.2v-1.714c-1.37-.08-2.453-.471-3.393-1.438l1.374-1.392c.687.696 1.618.928 2.626.928 1.252 0 1.924-.479 1.924-1.362 0-.386-.106-.711-.336-.928-.214-.201-.458-.31-.962-.386l-1.314-.186c-.931-.139-1.618-.433-2.107-.913-.518-.526-.778-1.237-.778-2.166 0-1.724 1.106-2.994 2.966-3.28V.799h1.6v1.546c1.106.116 1.972.496 2.732 1.241l-1.343 1.346c-.687-.666-1.511-.758-2.23-.758-1.13 0-1.679.634-1.679 1.392 0 .278.092.573.321.789.214.202.565.371 1.008.433l1.282.186c.993.139 1.618.418 2.077.85.581.557.84 1.362.84 2.336 0 1.8-1.254 2.93-3.007 3.244z"/>
    </symbol>
    <symbol viewBox="0 0 16 16" id="icon-cross" xmlns="http://www.w3.org/2000/svg">
        <path d="M11.478 11.879a.96.96 0 01-1.358 0L7.999 9.455l-2.121 2.423A.96.96 0 014.52 10.52L6.726 8 4.519 5.478A.96.96 0 015.877 4.12l2.122 2.425L10.12 4.12a.96.96 0 011.358 1.358L9.272 8l2.206 2.52a.96.96 0 010 1.358z"/>
    </symbol>
    <symbol viewBox="0 0 16 16" id="icon-cw" xmlns="http://www.w3.org/2000/svg">
        <path d="M15.452 8h-1.898v-.164c-.086-3.547-2.979-6.397-6.535-6.397C3.407 1.439.48 4.377.48 8s2.927 6.559 6.539 6.559c1.518 0 2.916-.52 4.026-1.39L9.92 11.966a4.882 4.882 0 01-2.902.954c-2.709 0-4.905-2.203-4.905-4.92s2.196-4.92 4.905-4.92c2.654 0 4.814 2.114 4.9 4.756V8H9.78l2.795 3.115L15.45 8z"/>
    </symbol>
    <symbol viewBox="0 0 16 16" id="icon-cycle" xmlns="http://www.w3.org/2000/svg">
        <path d="M4.413 11.379c-1.81-1.946-1.778-4.995.102-6.889a4.86 4.86 0 012.731-1.389l-.055-1.662A6.489 6.489 0 003.353 3.32C.834 5.856.803 9.951 3.255 12.545l-1.393 1.402 4.408.241-.012-4.667-1.846 1.858zM9.73 1.812l.012 4.667 1.846-1.858c1.81 1.947 1.778 4.997-.102 6.889a4.857 4.857 0 01-2.731 1.389l.055 1.661a6.493 6.493 0 003.838-1.88c2.518-2.538 2.549-6.633.098-9.225l1.393-1.403-4.408-.24z"/>
    </symbol>
    <symbol viewBox="0 0 16 16" id="icon-direction" xmlns="http://www.w3.org/2000/svg">
        <path d="M14.448 1.553c-.469-.469-.915-.026-2.433.703C7.955 4.207.88 8.173.88 8.173l6.079.867.868 6.079s3.966-7.074 5.917-11.133c.73-1.518 1.172-1.965.704-2.434zm-1.459 1.564l-4.415 8.198-.449-3.724 4.864-4.474z"/>
    </symbol>
    <symbol viewBox="0 0 16 16" id="icon-dots-three-horizontal" xmlns="http://www.w3.org/2000/svg">
        <path d="M8.001 6.24a1.76 1.76 0 100 3.522A1.76 1.76 0 008 6.24zm-5.6 0a1.76 1.76 0 100 3.522 1.76 1.76 0 000-3.522zm11.2 0a1.76 1.76 0 100 3.522 1.76 1.76 0 000-3.522z"/>
    </symbol>
    <symbol viewBox="0 0 16 16" id="icon-dots-three-vertical" xmlns="http://www.w3.org/2000/svg">
        <path d="M8.001 6.24a1.76 1.76 0 100 3.522A1.76 1.76 0 008 6.24zm0-2.08A1.76 1.76 0 107.999.64a1.76 1.76 0 00.002 3.52zm0 7.68a1.76 1.76 0 100 3.522 1.76 1.76 0 000-3.522z"/>
    </symbol>
    <symbol viewBox="0 0 16 16" id="icon-download" xmlns="http://www.w3.org/2000/svg">
        <path d="M12 5.6H9.6V.8H6.4v4.8H4l4 4 4-4zm3.47 5.226c-.168-.179-1.289-1.378-1.609-1.691a1.203 1.203 0 00-.834-.334h-1.406l2.451 2.395h-2.835a.22.22 0 00-.192.106l-.653 1.498H5.605l-.653-1.498a.22.22 0 00-.192-.106H1.925l2.45-2.395H2.97c-.318 0-.621.127-.834.334-.32.314-1.441 1.513-1.609 1.691-.391.417-.606.749-.504 1.159l.449 2.459c.102.411.553.749 1.002.749h13.05c.449 0 .899-.338 1.002-.749l.449-2.459c.101-.41-.114-.742-.506-1.159z"/>
    </symbol>
    <symbol viewBox="0 0 16 16" id="icon-dropbox" xmlns="http://www.w3.org/2000/svg">
        <path d="M4.887.722L.32 3.566l3.129 2.623L8 3.235 4.887.722zm5.875 12.072a.348.348 0 01-.228-.082L8 10.61l-2.534 2.103a.36.36 0 01-.423.024l-1.877-1.226v.723L8 15.279l4.834-3.046v-.723l-1.877 1.226a.353.353 0 01-.195.058zm4.918-9.228L11.112.722 8 3.235l4.55 2.954 3.13-2.623zM8 9.033l2.822 2.342 4.513-2.95-2.785-2.236L8 9.033zm-2.822 2.342L8 9.033 3.449 6.189.665 8.425l4.513 2.95z"/>
    </symbol>
    <symbol viewBox="0 0 16 16" id="icon-edit" xmlns="http://www.w3.org/2000/svg">
        <path d="M14.049 1.951c-1.154-1.154-2.02-.982-2.02-.982L1.768 11.229l-.808 3.81 3.81-.808L15.031 3.973c-.001 0 .173-.866-.982-2.022zM4.544 13.774l-1.299.28c-.125-.234-.276-.469-.552-.746s-.511-.426-.746-.553l.28-1.298.376-.375s.706.014 1.505.813c.798.797.813 1.505.813 1.505l-.377.374z"/>
    </symbol>
    <symbol viewBox="0 0 16 16" id="icon-email" xmlns="http://www.w3.org/2000/svg">
        <path d="M11.686 9.738c0 .672.191.94.691.94 1.114 0 1.824-1.42 1.824-3.782 0-3.61-2.63-5.338-5.914-5.338-3.378 0-6.451 2.266-6.451 6.547 0 4.09 2.688 6.317 6.816 6.317 1.402 0 2.342-.154 3.782-.634l.309 1.286c-1.421.462-2.939.595-4.11.595-5.414 0-8.314-2.976-8.314-7.565C.319 3.477 3.68.328 8.307.328c4.819 0 7.372 2.88 7.372 6.413 0 2.995-.94 5.28-3.897 5.28-1.345 0-2.227-.538-2.342-1.729-.346 1.325-1.267 1.729-2.516 1.729-1.67 0-3.072-1.287-3.072-3.878 0-2.611 1.23-4.224 3.438-4.224 1.171 0 1.901.461 2.226 1.19l.558-1.018h1.613v5.646h.002zm-2.36-2.535c0-1.055-.788-1.498-1.441-1.498-.71 0-1.497.575-1.497 2.266 0 1.344.595 2.093 1.497 2.093.634 0 1.441-.403 1.441-1.517V7.203z"/>
    </symbol>
    <symbol viewBox="0 0 16 16" id="icon-emoji-happy" xmlns="http://www.w3.org/2000/svg">
        <path d="M8 .32C3.758.32.32 3.758.32 8S3.758 15.68 8 15.68A7.68 7.68 0 008 .32zm0 13.759A6.08 6.08 0 1114.081 8 6.08 6.08 0 018 14.079zM6.001 7.8c.662 0 1.199-.626 1.199-1.4S6.662 5 6 5s-1.2.626-1.2 1.4.538 1.4 1.201 1.4zM10 7.8c.663 0 1.2-.626 1.2-1.4S10.662 5 10 5s-1.2.627-1.2 1.4.538 1.4 1.2 1.4zm1.473 1.269a.605.605 0 00-.806.256c-.027.053-.695 1.274-2.666 1.274-1.961 0-2.633-1.21-2.666-1.274a.6.6 0 00-1.071.543c.04.079.998 1.931 3.738 1.931s3.697-1.853 3.736-1.932a.595.595 0 00-.264-.798z"/>
    </symbol>
    <symbol viewBox="0 0 23 17" id="icon-en-flag" xmlns="http://www.w3.org/2000/svg">
        <path d="M-.1 0H23v17.1H-.1z"/>
        <path d="M23 0h-2.1l-7.1 5.3V0H9.1v5.2L2 0H-.1v2.1l4.9 3.5H-.1v5.8h4.9L-.1 15v2.1H2l7.1-5.3v5.3h4.7v-5.3l7.1 5.3H23V15l-4.9-3.6H23V5.6h-4.9L23 2.1z"/>
        <path d="M14.2 5.7h1.6L23 .4V0h-1.1zm-8.4 0h1.8L-.1 0v1.4zm1.3 5.8h1.6l-7.6 5.6H-.1v-.4zm8.2-.1h1.8l5.9 4.3v1.5z"/>
        <path d="M23 6.9H12.8V0h-2.7v6.9H-.1v3.3h10.2v6.9h2.7v-6.9H23z"/>
    </symbol>
    <symbol viewBox="0 0 16 16" id="icon-export" xmlns="http://www.w3.org/2000/svg">
        <path d="M12 12H1.6V4.8h2.076s.551-.717 1.736-1.6H.8A.8.8 0 000 4v8.8a.8.8 0 00.8.8h12a.8.8 0 00.8-.8V9.803L12 11.119V12zm-1.311-5.56v2.841L16 5.12l-5.311-3.999v2.505C4.24 3.626 4.24 10 4.24 10c1.826-2.998 2.949-3.56 6.449-3.56z"/>
    </symbol>
    <symbol viewBox="0 0 16 16" id="icon-eye" xmlns="http://www.w3.org/2000/svg">
        <path d="M8 3.52C2.751 3.52 0 7.386 0 8c0 .613 2.751 4.48 8 4.48S16 8.613 16 8c0-.614-2.752-4.48-8-4.48zm0 7.926c-1.964 0-3.556-1.542-3.556-3.446S6.036 4.553 8 4.553 11.555 6.097 11.555 8 9.964 11.446 8 11.446zM8 8c-.326-.358.53-1.723 0-1.723-.982 0-1.778.772-1.778 1.723S7.018 9.723 8 9.723 9.778 8.951 9.778 8c0-.438-1.502.303-1.778 0z"/>
    </symbol>
    <symbol viewBox="0 0 20 20" id="icon-eye-with-line" xmlns="http://www.w3.org/2000/svg">
        <path d="M18.521 1.478a1 1 0 00-1.414 0L1.48 17.107a1 1 0 101.414 1.414L18.52 2.892a1 1 0 000-1.414zM3.108 13.498l2.56-2.56A4.18 4.18 0 015.555 10c0-2.379 1.99-4.309 4.445-4.309.286 0 .564.032.835.082l1.203-1.202A12.645 12.645 0 0010 4.401C3.44 4.4 0 9.231 0 10c0 .423 1.057 2.09 3.108 3.497zm13.787-6.993l-2.562 2.56c.069.302.111.613.111.935 0 2.379-1.989 4.307-4.444 4.307-.284 0-.56-.032-.829-.081l-1.204 1.203c.642.104 1.316.17 2.033.17 6.56 0 10-4.833 10-5.599 0-.424-1.056-2.09-3.105-3.495z"/>
    </symbol>
    <symbol viewBox="0 0 9 16" id="icon-facebook" xmlns="http://www.w3.org/2000/svg">
        <path d="M8.563.107v2.357H7.161q-.768 0-1.036.321t-.268.964v1.688h2.616L8.125 8.08H5.857v6.777H3.125V8.08H.848V5.437h2.277V3.491q0-1.661.929-2.576T6.527 0Q7.84 0 8.563.107z"/>
    </symbol>
    <symbol viewBox="0 0 20 20" id="icon-facebook-with-circle" xmlns="http://www.w3.org/2000/svg">
        <path d="M10 .4C4.698.4.4 4.698.4 10s4.298 9.6 9.6 9.6 9.6-4.298 9.6-9.6S15.302.4 10 .4zm2.274 6.634h-1.443c-.171 0-.361.225-.361.524V8.6h1.805l-.273 1.486H10.47v4.461H8.767v-4.461H7.222V8.6h1.545v-.874c0-1.254.87-2.273 2.064-2.273h1.443v1.581z"/>
    </symbol>
    <symbol viewBox="0 0 16 16" id="icon-feather" xmlns="http://www.w3.org/2000/svg">
        <path d="M3.403 15.654c.246-.786.616-1.891 1.113-3.49 2.166-.343 3.062.273 4.437-2.183-1.116.342-2.462-.634-2.39-1.057s3.13.305 5.133-2.538c-2.524.557-3.331-.669-3.006-.854.751-.427 2.981-.178 4.17-1.335.613-.596.9-2.045.65-2.562-.299-.625-2.125-1.557-3.131-1.469S7.794 3.998 7.325 3.969c-.467-.03-.562-1.678.255-3.21-.862.382-2.441 1.567-2.936 2.581-.922 1.886.086 6.213-.237 6.366S2.994 7.721 2.669 6.751c-.444 1.487-.454 2.977.842 4.955-.489 1.298-.756 2.793-.797 3.553-.019.607.579.738.687.394z"/>
    </symbol>
    <symbol viewBox="0 0 13 16" id="icon-filter" xmlns="http://www.w3.org/2000/svg">
        <path d="M12.527 2.634q.152.366-.125.625L8 7.661v6.625q0 .375-.348.527-.116.045-.223.045-.241 0-.402-.17l-2.286-2.286q-.17-.17-.17-.402V7.661L.169 3.259Q-.108 3 .044 2.634q.152-.348.527-.348H12q.375 0 .527.348z"/>
    </symbol>
    <symbol viewBox="0 0 16 16" id="icon-flag" xmlns="http://www.w3.org/2000/svg">
        <path d="M15.141 4.467c-7.471 10.854-4.914-.208-11.23 5.086L5.347 15.2H3.732L.8 3.672l1.48-.531c7.079-5.177 3.382 4.656 12.51 1.003.291-.118.524.072.351.323z"/>
    </symbol>
    <symbol viewBox="0 0 16 16" id="icon-flickr" xmlns="http://www.w3.org/2000/svg">
        <path d="M4 11.2C2.25 11.2.832 9.769.832 8S2.25 4.8 4 4.8c1.75 0 3.168 1.431 3.168 3.2S5.75 11.2 4 11.2zm8 0c-1.75 0-3.168-1.431-3.168-3.2S10.25 4.8 12 4.8c1.75 0 3.168 1.431 3.168 3.2S13.75 11.2 12 11.2z"/>
    </symbol>
    <symbol viewBox="0 0 16 16" id="icon-folder" xmlns="http://www.w3.org/2000/svg">
        <path d="M14.724 3.839c-.089-.352-.524-.639-.968-.639H8.305c-.443 0-1.064-.254-1.378-.566l-.477-.47c-.314-.311-.934-.564-1.377-.564H2.469a.922.922 0 00-.896.795L1.339 4.8h13.545l-.161-.961zM15.53 5.6H.471a.464.464 0 00-.462.508l.738 7.735c.03.315.295.557.613.557h13.28a.617.617 0 00.613-.557l.738-7.735a.464.464 0 00-.462-.508z"/>
    </symbol>
    <symbol viewBox="0 0 16 16" id="icon-forward" xmlns="http://www.w3.org/2000/svg">
        <path d="M9.6 9.499v3.486l5.6-5.352-5.6-5.258v3.186c-7.02 0-8.8 7.786-8.8 7.786 1.987-3.51 4.99-3.848 8.8-3.848z"/>
    </symbol>
    <symbol viewBox="0 0 20 20" id="icon-globe" xmlns="http://www.w3.org/2000/svg">
        <path d="M10 .4C4.705.4.399 4.707.399 10c0 5.293 4.306 9.6 9.601 9.6 5.293 0 9.6-4.307 9.6-9.6 0-5.293-4.307-9.6-9.6-9.6zm8.188 9.6c0 1.873-.636 3.6-1.696 4.98-.3-.234-.619-.867-.319-1.523.303-.66.382-2.188.312-2.783-.066-.594-.375-2.025-1.214-2.039-.838-.012-1.413-.289-1.911-1.283-1.033-2.068 1.939-2.465.906-3.609-.289-.322-1.783 1.322-2.002-.869-.014-.157.135-.392.336-.636 3.244 1.09 5.588 4.157 5.588 7.762zM8.875 1.893c-.196.382-.713.537-1.027.824-.684.619-.978.533-1.346 1.127-.371.594-1.567 1.449-1.567 1.879s.604.936.906.838c.302-.1 1.099-.094 1.567.07.469.166 3.914.332 2.816 3.244-.348.926-1.873.77-2.279 2.303-.061.225-.272 1.186-.285 1.5-.025.486.344 2.318-.125 2.318-.471 0-1.738-1.639-1.738-1.936 0-.297-.328-1.338-.328-2.23 0-.891-1.518-.877-1.518-2.062 0-1.068.823-1.6.638-2.113-.181-.51-1.627-.527-2.23-.59a8.213 8.213 0 016.516-5.172zM7.424 17.77c.492-.26.542-.596.988-.613.51-.023.925-.199 1.5-.326.51-.111 1.423-.629 2.226-.695.678-.055 2.015.035 2.375.689a8.159 8.159 0 01-7.089.945z"/>
    </symbol>
    <symbol viewBox="0 0 131 130" id="icon-globe-icon" xmlns="http://www.w3.org/2000/svg">
        <path d="M64.58 19.87c-25.36 0-46 20.64-46 46s20.64 46 46 46 46-20.64 46-46-20.63-46-46-46zm33.67 29.88H85.26c-.94-5.37-2.35-10.32-4.19-14.57-.56-1.29-1.15-2.49-1.77-3.62a37.564 37.564 0 0118.95 18.19zm3.67 16.12c0 2.56-.26 5.06-.75 7.47H86.34c.19-2.45.28-4.94.28-7.47 0-2.52-.09-5.02-.28-7.46h14.83c.49 2.41.75 4.91.75 7.46zm-74.68 0c0-2.55.26-5.05.75-7.46h14.83c-.18 2.44-.28 4.94-.28 7.46 0 2.53.09 5.03.28 7.47H28c-.5-2.41-.76-4.91-.76-7.47zm23.97 0c0-2.54.1-5.03.3-7.46h26.14c.2 2.43.3 4.92.3 7.46s-.1 5.04-.31 7.47H51.51c-.2-2.43-.3-4.93-.3-7.47zm13.37-36.64c2.77 0 6.04 3.6 8.54 9.39 1.41 3.26 2.53 7.03 3.34 11.13H52.7c.81-4.11 1.93-7.87 3.34-11.13 2.5-5.79 5.77-9.39 8.54-9.39zm-14.73 2.33c-.62 1.13-1.21 2.33-1.77 3.62-1.84 4.25-3.25 9.2-4.19 14.57H30.91a37.582 37.582 0 0118.94-18.19zM30.91 82.01H43.9c.94 5.36 2.35 10.31 4.19 14.55.56 1.29 1.15 2.49 1.77 3.62-8.3-3.57-15.04-10.07-18.95-18.17zm33.67 20.5c-2.77 0-6.04-3.6-8.54-9.39-1.41-3.26-2.53-7.02-3.33-11.12h23.75c-.81 4.1-1.93 7.86-3.33 11.12-2.51 5.79-5.78 9.39-8.55 9.39zm14.73-2.33c.62-1.13 1.21-2.33 1.77-3.62 1.84-4.25 3.25-9.19 4.19-14.55h12.99c-3.91 8.1-10.66 14.6-18.95 18.17z"/>
    </symbol>
    <symbol viewBox="0 0 16 16" id="icon-google" xmlns="http://www.w3.org/2000/svg">
        <path d="M1.591 4.471c0 1.195.399 2.058 1.186 2.564.645.416 1.392.478 1.781.478.094 0 .17-.005.223-.008 0 0-.123.803.472 1.597h-.027c-1.031 0-4.394.215-4.394 2.982 0 2.813 3.089 2.956 3.709 2.956.049 0 .078-.002.078-.002.006 0 .05.002.126.002.398 0 1.426-.05 2.38-.514 1.238-.6 1.866-1.647 1.866-3.108 0-1.411-.957-2.251-1.655-2.866-.426-.375-.795-.698-.795-1.013 0-.32.27-.561.61-.866.551-.492 1.071-1.194 1.071-2.52 0-1.166-.151-1.949-1.083-2.446.097-.05.441-.086.61-.11.505-.069 1.243-.147 1.243-.559V.959H5.313c-.037.002-3.721.138-3.721 3.511zm5.939 7.211c.07 1.125-.892 1.954-2.338 2.059-1.468.108-2.676-.553-2.746-1.677-.034-.541.203-1.069.668-1.49.471-.426 1.118-.69 1.822-.742.083-.005.166-.01.248-.01 1.359.001 2.279.799 2.346 1.86zm-.96-7.981c.361 1.27-.184 2.597-1.053 2.842-.1.028-.202.042-.307.042-.795 0-1.583-.805-1.876-1.914-.163-.621-.15-1.166.038-1.69.183-.516.514-.862.93-.98.1-.028.203-.042.308-.042.96 0 1.578.398 1.96 1.742zM12.8 6.4V4h-1.6v2.4H8.8V8h2.4v2.4h1.6V8h2.4V6.4h-2.4z"/>
    </symbol>
    <symbol viewBox="0 0 16 16" id="icon-graduation" xmlns="http://www.w3.org/2000/svg">
        <path d="M2.642 9.79c.371 1.503.843 2.161 2.418 2.85s2.323 1.44 2.941 1.44c.617 0 1.318-.658 2.893-1.347s1.154-.898 1.526-2.402L8.002 12.48 2.644 9.79zm12.967-3.921l-6.66-3.73c-.522-.292-1.376-.292-1.898 0L.39 5.869c-.522.292-.522.77 0 1.062l6.66 3.73c.522.292 1.376.292 1.898 0l4.306-2.411-4.669-1.094c-.18.044-.378.069-.585.069-.842 0-1.523-.405-1.523-.905 0-.502.682-.906 1.523-.906.653 0 1.208.246 1.424.587l4.946 1.623 1.239-.694c.521-.291.521-.77 0-1.062zm-2.035 7.067c-.052.308 1.026.814 1.129-.086.463-4.058-.333-5.225-.333-5.225l-1.116.625c0-.001.946.9.32 4.686z"/>
    </symbol>
    <symbol viewBox="0 0 16 16" id="icon-headphones" xmlns="http://www.w3.org/2000/svg">
        <path d="M15 9h-1V7c0-3.313-2.688-6-6-6S2 3.688 2 7v2H1a1 1 0 00-1 1v4a1 1 0 001 1h3V7c0-2.207 1.793-4 4-4s4 1.793 4 4v8h3a1 1 0 001-1v-4a1 1 0 00-1-1z"/>
    </symbol>
    <symbol viewBox="0 0 16 16" id="icon-headphones-gray" xmlns="http://www.w3.org/2000/svg">
        <path d="M15 9h-1V7c0-3.313-2.688-6-6-6S2 3.688 2 7v2H1a1 1 0 00-1 1v4a1 1 0 001 1h3V7c0-2.207 1.793-4 4-4s4 1.793 4 4v8h3a1 1 0 001-1v-4a1 1 0 00-1-1z"/>
    </symbol>
    <symbol viewBox="0 0 16 16" id="icon-headphones-white" xmlns="http://www.w3.org/2000/svg">
        <path d="M15 9h-1V7c0-3.313-2.688-6-6-6S2 3.688 2 7v2H1a1 1 0 00-1 1v4a1 1 0 001 1h3V7c0-2.207 1.793-4 4-4s4 1.793 4 4v8h3a1 1 0 001-1v-4a1 1 0 00-1-1z"/>
    </symbol>
    <symbol viewBox="0 0 16 16" id="icon-heart" xmlns="http://www.w3.org/2000/svg">
        <path d="M13.752 3.324c-1.338-1.227-3.506-1.227-4.844 0L8 4.158l-.909-.834c-1.338-1.227-3.506-1.227-4.843 0-1.505 1.382-1.505 3.616 0 4.997L8 13.6l5.752-5.279c1.504-1.381 1.504-3.616 0-4.997z"/>
    </symbol>
    <symbol viewBox="0 0 16 16" id="icon-heart-outlined" xmlns="http://www.w3.org/2000/svg">
        <path d="M13.752 3.325c-1.338-1.228-3.506-1.228-4.844 0L8 4.158l-.909-.833c-1.338-1.228-3.506-1.228-4.843 0-1.505 1.381-1.505 3.615 0 4.996L8 13.6l5.752-5.279c1.504-1.381 1.504-3.616 0-4.996zM12.899 7.5L8 12.072 3.1 7.5c-.494-.454-.685-1.046-.685-1.675s.11-1.146.605-1.599c.436-.401 1.022-.622 1.65-.622s1.214.381 1.65.782L8 5.846l1.679-1.461c.437-.402 1.022-.782 1.65-.782s1.214.221 1.65.622c.494.453.604.97.604 1.599s-.19 1.222-.685 1.676z"/>
    </symbol>
    <symbol viewBox="0 0 16 16" id="icon-help" xmlns="http://www.w3.org/2000/svg">
        <path d="M11.272 1.786C10.36 1.128 9.214.8 7.835.8c-1.049 0-1.934.231-2.654.694-1.142.725-1.748 1.956-1.822 3.692h2.646c0-.506.148-.992.442-1.462.295-.469.796-.703 1.502-.703.718 0 1.214.19 1.483.57.271.382.406.803.406 1.266 0 .403-.202.772-.446 1.106a2.32 2.32 0 01-.529.539s-1.434.92-2.064 1.659c-.365.428-.398 1.07-.43 1.99-.002.066.023.202.252.202h2.057c.205 0 .247-.151.25-.219.014-.334.051-.506.113-.7.115-.366.43-.684.783-.959l.728-.502c.658-.513 1.182-.933 1.414-1.262.395-.541.674-1.208.674-2-.001-1.292-.457-2.266-1.369-2.925zM7.793 11.939c-.911-.028-1.663.603-1.692 1.592-.028.987.686 1.641 1.598 1.667.951.028 1.683-.582 1.713-1.57.027-.989-.667-1.661-1.619-1.689z"/>
    </symbol>
    <symbol viewBox="0 0 16 16" id="icon-help-with-circle" xmlns="http://www.w3.org/2000/svg">
        <path d="M8 .32C3.758.32.32 3.758.32 8S3.758 15.68 8 15.68A7.68 7.68 0 008 .32zm-.121 12.159h-.041c-.626-.018-1.067-.48-1.049-1.097.018-.606.47-1.047 1.074-1.047l.037.002c.643.018 1.08.475 1.062 1.11-.018.608-.462 1.033-1.083 1.033zm2.633-5.225c-.147.208-.47.469-.878.786l-.45.31c-.246.192-.395.374-.45.55-.045.139-.066.177-.07.461v.072H6.948l.005-.146c.022-.595.036-.947.283-1.238.388-.454 1.244-1.006 1.28-1.03.123-.092.226-.197.303-.31.18-.249.259-.444.259-.634a1.24 1.24 0 00-.234-.733c-.15-.213-.436-.318-.849-.318-.41 0-.69.13-.858.397a1.58 1.58 0 00-.26.854v.074H5.108l.003-.077c.046-1.082.433-1.862 1.148-2.318.45-.289 1.011-.435 1.665-.435.854 0 1.578.208 2.146.618.577.415.869 1.038.869 1.849-.001.454-.144.88-.427 1.268z"/>
    </symbol>
    <symbol viewBox="0 0 16 16" id="icon-home" xmlns="http://www.w3.org/2000/svg">
        <path d="M14.938 8.8H13.6v4.8c0 .356-.155.8-.8.8H9.6V9.6H6.4v4.8H3.2c-.645 0-.8-.444-.8-.8V8.8H1.062c-.478 0-.376-.259-.048-.598l6.419-6.426a.824.824 0 01.566-.25c.206.008.41.087.566.25l6.418 6.425c.329.34.431.599-.047.599z"/>
    </symbol>
    <symbol viewBox="0 0 16 16" id="icon-inbox" xmlns="http://www.w3.org/2000/svg">
        <path d="M15.402 7.634c-.31-.333-1.812-1.817-2.498-2.494a1.192 1.192 0 00-.826-.339H3.921c-.315 0-.616.132-.826.339C2.409 5.818.908 7.301.597 7.634c-.388.417-.578.722-.499 1.159s.373 2.123.445 2.459c.07.335.547.748.992.748h12.93c.445 0 .922-.413.993-.748s.366-2.022.445-2.459-.111-.743-.5-1.159zm-4.191.368a.217.217 0 00-.19.106l-.648 1.491H5.627L4.98 8.108a.216.216 0 00-.19-.106H1.979L3.597 6.4h8.808l1.618 1.602h-2.811z"/>
    </symbol>
    <symbol viewBox="0 0 16 16" id="icon-info" xmlns="http://www.w3.org/2000/svg">
        <path d="M9.946 0c1.072 0 1.608.73 1.608 1.566 0 1.044-.931 2.01-2.143 2.01-1.015 0-1.607-.6-1.579-1.592 0-.834.705-1.983 2.114-1.983zM6.647 16c-.846 0-1.466-.522-.874-2.819l.971-4.074c.169-.651.197-.913 0-.913-.254 0-1.351.45-2.002.894l-.422-.704C6.378 6.635 8.745 5.61 9.761 5.61c.846 0 .986 1.018.564 2.584l-1.113 4.282c-.197.756-.113 1.017.085 1.017.254 0 1.086-.314 1.903-.966l.48.651C9.678 15.216 7.492 16 6.647 16z"/>
    </symbol>
    <symbol viewBox="0 0 16 16" id="icon-info-with-circle" xmlns="http://www.w3.org/2000/svg">
        <path d="M8 .32a7.68 7.68 0 100 15.361c4.241 0 7.68-3.438 7.68-7.681S12.241.32 8 .32zm.717 2.773c.749 0 .969.434.969.931 0 .62-.496 1.194-1.343 1.194-.709 0-1.046-.356-1.026-.946 0-.497.415-1.179 1.4-1.179zM6.798 12.6c-.512 0-.886-.311-.528-1.675l.586-2.42c.102-.387.118-.542 0-.542-.153 0-.818.267-1.21.531l-.255-.418c1.244-1.039 2.674-1.649 3.286-1.649.512 0 .597.605.342 1.536l-.672 2.544c-.119.45-.068.605.051.605.154 0 .656-.186 1.15-.575l.29.389c-1.21 1.21-2.53 1.675-3.041 1.675z"/>
    </symbol>
    <symbol viewBox="0 0 16 16" id="icon-key" xmlns="http://www.w3.org/2000/svg">
        <path d="M14.153 3.78C13.751 1.398 11.577-.194 9.298.227S5.093 2.48 5.496 4.863c.086.513.326 1.315.61 1.892l-4.14 6.178c-.153.228-.239.639-.194.913l.266 1.577a.488.488 0 00.56.411l1.213-.225c.262-.047.595-.278.739-.511l1.638-2.649.014-.018 1.109-.205 1.912-3.103c.628.111 1.53.074 2.062-.025 2.278-.421 3.27-2.936 2.867-5.319zm-2.02 1.222c-.627.936-1.267.277-2.162-.38-.895-.654-1.708-1.058-1.082-1.994s1.861-1.164 2.758-.508c.896.655 1.113 1.946.486 2.882z"/>
    </symbol>
    <symbol viewBox="0 0 16 16" id="icon-laptop" xmlns="http://www.w3.org/2000/svg">
        <path d="M15.803 12.505L14.4 10.4V3.2c0-.882-.72-1.6-1.6-1.6H3.2c-.881 0-1.6.718-1.6 1.6v7.2L.197 12.505C0 12.8 0 12.971 0 13.2v.4c0 .4.4.8.799.8h14.402c.399 0 .799-.4.799-.8v-.4c0-.23 0-.4-.197-.695zM5.6 12.8l.48-.8h3.84l.48.8H5.6zm7.2-3.2H3.2V3.2h9.6v6.4z"/>
    </symbol>
    <symbol viewBox="0 0 16 16" id="icon-line-graph" xmlns="http://www.w3.org/2000/svg">
        <path d="M.552 9.065l1.09.27.821-1.289-1.56-.386a.724.724 0 10-.352 1.404zm14.233.209l-3.57 3.213-4.198-3.249a.735.735 0 00-.27-.13l-.558-.139-.822 1.289.88.218 4.558 3.526a.73.73 0 00.934-.035l4.022-3.622c.298-.267.321-.725.051-1.022s-.729-.32-1.027-.051zm-7.838-3.53l3.91 2.503c.33.211.769.123.992-.197l4.022-5.794a.721.721 0 00-.185-1.008.728.728 0 00-1.012.184l-3.622 5.217-3.933-2.518a.73.73 0 00-1.007.222L.114 13.767a.722.722 0 00.613 1.113.725.725 0 00.614-.336l5.606-8.8z"/>
    </symbol>
    <symbol viewBox="0 0 16 16" id="icon-link" xmlns="http://www.w3.org/2000/svg">
        <path d="M6.287 11.753l-.648.644a1.451 1.451 0 01-2.036 0 1.41 1.41 0 010-2.004l2.384-2.364c.494-.49 1.423-1.212 2.101-.54a.793.793 0 101.117-1.126c-1.15-1.142-2.853-.931-4.335.54L2.486 9.268a2.974 2.974 0 00-.886 2.126c0 .805.315 1.559.886 2.126.589.584 1.362.877 2.135.877s1.547-.292 2.135-.877l.649-.644c.311-.308.313-.81.004-1.12s-.811-.312-1.122-.005zm7.226-9.187c-1.238-1.227-2.967-1.294-4.111-.158l-.807.802a.792.792 0 101.117 1.125l.808-.801c.592-.589 1.369-.345 1.877.158a1.405 1.405 0 010 2.003L9.853 8.218c-1.163 1.153-1.709.613-1.942.382a.793.793 0 00-1.117 1.125c.534.53 1.144.792 1.782.792.782 0 1.608-.394 2.394-1.174l2.544-2.522c.57-.568.886-1.323.886-2.126s-.316-1.559-.887-2.127z"/>
    </symbol>
    <symbol viewBox="0 0 16 16" id="icon-linkedin" xmlns="http://www.w3.org/2000/svg">
        <path d="M4 2.4c0 .85-.568 1.581-1.601 1.581C1.427 3.981.8 3.291.8 2.442.8 1.57 1.408.8 2.4.8s1.581.728 1.6 1.6zM.8 15.2V4.8H4v10.4H.8zm4.8-6.845a66.35 66.35 0 00-.082-3.161h2.875l.142 1.378h.061c.405-.649 1.397-1.6 3.058-1.6 2.026 0 3.546 1.356 3.546 4.274V15.2H12V9.711c0-1.275-.486-2.248-1.6-2.248-.85 0-1.275.688-1.498 1.255-.082.203-.102.486-.102.77v5.711H5.6V8.354z"/>
    </symbol>
    <symbol viewBox="0 0 16 16" id="icon-location" xmlns="http://www.w3.org/2000/svg">
        <path d="M15.494 14.482L14.4 11.2h-1.2l.666 3.2H2.133l.666-3.2h-1.2L.505 14.482C.227 15.317.719 16 1.599 16h12.8c.88 0 1.372-.683 1.094-1.518zM12 4a4 4 0 10-8 0c0 3.82 4 8 4 8s4-4.18 4-8zm-6.16.048c0-1.193.966-2.159 2.16-2.159a2.158 2.158 0 110 4.319 2.16 2.16 0 01-2.16-2.16z"/>
    </symbol>
    <symbol viewBox="0 0 16 16" id="icon-location-pin" xmlns="http://www.w3.org/2000/svg">
        <path d="M8 1.607c-2.21 0-4 1.783-4 3.992 0 3.819 4 8.8 4 8.8s4-4.982 4-8.8a3.993 3.993 0 00-4-3.992zm0 6.201a2.16 2.16 0 11-.001-4.319A2.16 2.16 0 018 7.808z"/>
    </symbol>
    <symbol viewBox="0 0 16 16" id="icon-lock" xmlns="http://www.w3.org/2000/svg">
        <path d="M12.64 6.4H11.2V4.48C11.2 2.162 10.132.8 8 .8S4.8 2.162 4.8 4.48V6.4H3.2c-.442 0-.8.517-.8.959V13.6c0 .439.342.911.761 1.046l.958.31a6.169 6.169 0 001.562.245h4.64c.439 0 1.142-.111 1.561-.246l.957-.31c.419-.134.762-.606.762-1.045V7.359c0-.442-.518-.959-.96-.959zm-3.04 0H6.4V4.159C6.4 3.003 7.038 2.4 8 2.4s1.6.603 1.6 1.759V6.4z"/>
    </symbol>
    <symbol viewBox="0 0 16 16" id="icon-lock-open" xmlns="http://www.w3.org/2000/svg">
        <path d="M12.64 6.4H11.2V4.48C11.2 2.162 10.132.8 8 .8S4.8 2.162 4.8 4.48v.32h1.6v-.641C6.4 3.003 7.038 2.4 8 2.4s1.6.603 1.6 1.759V6.4H3.2c-.442 0-.8.517-.8.959V13.6c0 .439.342.911.761 1.046l.958.31a6.169 6.169 0 001.562.245h4.64c.439 0 1.142-.111 1.561-.246l.957-.31c.419-.134.762-.606.762-1.045V7.359c0-.442-.518-.959-.96-.959z"/>
    </symbol>
    <symbol viewBox="0 0 16 16" id="icon-mail" xmlns="http://www.w3.org/2000/svg">
        <path d="M1.259 4.229l6 3.223c.202.108.462.159.725.159.262 0 .523-.051.725-.159l6-3.223c.391-.21.761-1.029.043-1.029H1.217c-.718 0-.348.818.042 1.029zM14.89 5.991c-.444.231-5.91 3.079-6.182 3.222s-.462.159-.725.159-.453-.017-.725-.159-5.706-2.991-6.15-3.222c-.312-.163-.309.028-.309.175V12c0 .336.453.8.8.8h12.8c.347 0 .8-.464.8-.8V6.166c0-.148.003-.338-.31-.175z"/>
    </symbol>
    <symbol viewBox="0 0 16 16" id="icon-message" xmlns="http://www.w3.org/2000/svg">
        <path d="M14.4 4.8v5.6c0 .88-.72 1.6-1.6 1.6H9.6v2.4L6.4 12H3.2c-.881 0-1.6-.72-1.6-1.6V4.8c0-.88.719-1.6 1.6-1.6h9.6c.88 0 1.6.72 1.6 1.6z"/>
    </symbol>
    <symbol viewBox="0 0 16 16" id="icon-mic" xmlns="http://www.w3.org/2000/svg">
        <path d="M13.119 6.114V8.32c0 1.789-1.314 3.703-4.319 3.967V14.4h2.08a.32.32 0 01.32.32v.96a.32.32 0 01-.32.32H5.12a.32.32 0 01-.32-.32v-.96a.32.32 0 01.319-.32H7.2v-2.113c-3.006-.264-4.32-2.178-4.32-3.967V6.114a.32.32 0 01.32-.32h.48a.32.32 0 01.32.32V8.32c0 1.069.842 2.88 4 2.88s4-1.811 4-2.88V6.114a.32.32 0 01.319-.32h.481a.319.319 0 01.319.32zM8 9.6c1.877 0 2.4-.772 2.4-1.28V5.794H5.6V8.32c0 .508.522 1.28 2.4 1.28zm2.4-8.32C10.4.77 9.877 0 8 0 6.122 0 5.6.77 5.6 1.28v3.394h4.8V1.28z"/>
    </symbol>
    <symbol viewBox="0 0 16 16" id="icon-minus" xmlns="http://www.w3.org/2000/svg">
        <path d="M12.8 8c0 .442-.038.8-.481.8H3.681c-.442 0-.481-.358-.481-.8s.039-.8.481-.8h8.639c.442 0 .48.358.48.8z"/>
    </symbol>
    <symbol viewBox="0 0 16 16" id="icon-mobile" xmlns="http://www.w3.org/2000/svg">
        <path d="M11.203 0H4.797C3.915 0 3.2.715 3.2 1.597v12.806c0 .882.715 1.598 1.597 1.598h6.406c.882 0 1.598-.715 1.598-1.597V1.598c0-.882-.715-1.597-1.597-1.597zM8 15.2c-.552 0-1-.358-1-.8s.448-.8 1-.8 1 .358 1 .8-.448.8-1 .8zm3.2-2.4H4.8V1.6h6.4v11.2z"/>
    </symbol>
    <symbol viewBox="0 0 14 16" id="icon-navicon" xmlns="http://www.w3.org/2000/svg">
        <path d="M13.714 12v1.143q0 .232-.17.402t-.402.17H.571q-.232 0-.402-.17t-.17-.402V12q0-.232.17-.402t.402-.17h12.571q.232 0 .402.17t.17.402zm0-4.571v1.143q0 .232-.17.402t-.402.17H.571q-.232 0-.402-.17t-.17-.402V7.429q0-.232.17-.402t.402-.17h12.571q.232 0 .402.17t.17.402zm0-4.572V4q0 .232-.17.402t-.402.17H.571q-.232 0-.402-.17T-.001 4V2.857q0-.232.17-.402t.402-.17h12.571q.232 0 .402.17t.17.402z"/>
    </symbol>
    <symbol viewBox="0 0 16 16" id="icon-new-message" xmlns="http://www.w3.org/2000/svg">
        <path d="M14.539 1.461c-.882-.882-1.666-.622-1.666-.622L5.962 7.745 4.8 11.2l3.454-1.163 6.907-6.91s.259-.784-.622-1.666zM8.484 9.284l-.377.376-1.178.4c-.083-.192-.187-.382-.398-.592s-.4-.315-.592-.398l.4-1.178.377-.376s.621-.071 1.23.538.539 1.23.539 1.23zM12.8 13.6H2.4V3.2h4L8 1.6H2.4c-.88 0-1.6.72-1.6 1.6v10.4c0 .88.72 1.6 1.6 1.6h10.4c.88 0 1.6-.72 1.6-1.6V8l-1.6 1.6v4z"/>
    </symbol>
    <symbol viewBox="0 0 16 16" id="icon-news" xmlns="http://www.w3.org/2000/svg">
        <path d="M11.2 4H8v1.6h3.2V4zm0 2.4H8v.8h3.2v-.8zM7.2 4H4.8v3.2h2.4V4zm0 4.8h4V8h-4v.8zm2.4 1.6h1.6v-.8H9.6v.8zm1.6.8H4.8v.8h6.4v-.8zM8.8 9.6h-4v.8h4v-.8zM6.4 8H4.8v.8h1.6V8zM13.6.8H2.4a.8.8 0 00-.8.8v12.8a.8.8 0 00.8.8h11.2a.8.8 0 00.8-.8V1.6a.8.8 0 00-.8-.8zm-.8 12.8H3.2V2.4h9.6v11.2z"/>
    </symbol>
    <symbol viewBox="0 0 16 16" id="icon-open-book" xmlns="http://www.w3.org/2000/svg">
        <path d="M8.476 4.157l.357 1.097a3.305 3.305 0 011.153-.636c.472-.154.889-.24 1.266-.29l-.344-1.058c-.381.055-.801.144-1.264.294s-.844.36-1.167.593zm.742 2.284l.357 1.097a3.305 3.305 0 011.153-.636c.472-.154.889-.24 1.266-.29l-.344-1.058c-.381.055-.801.144-1.264.294s-.843.359-1.167.593zm.742 2.283l.357 1.097a3.305 3.305 0 011.153-.636c.472-.154.889-.24 1.266-.29l-.344-1.058c-.381.055-.801.144-1.264.294s-.844.36-1.167.593zm-5.65 1.738l.344 1.058a7.014 7.014 0 011.194-.509 3.289 3.289 0 011.306-.162l-.357-1.097c-.399.002-.83.056-1.292.206-.463.15-.855.325-1.195.504zM2.826 5.894l.344 1.058a7.095 7.095 0 011.194-.509 3.289 3.289 0 011.306-.162l-.356-1.098c-.399.002-.83.056-1.293.206s-.855.325-1.195.504zm.742 2.284l.344 1.058a7.014 7.014 0 011.194-.509 3.289 3.289 0 011.306-.162l-.356-1.098c-.399.002-.83.056-1.292.206-.463.15-.856.326-1.196.505zm5.283-7.05a4.21 4.21 0 00-2.442 2.047 4.205 4.205 0 00-3.178-.22C1.213 3.611.056 5.057.056 5.057l3.276 10.07c.101.31.517.382.702.114.399-.575 1.168-1.326 2.606-1.794 1.374-.446 2.375.043 2.924.462.218.166.53.048.61-.214.202-.662.726-1.632 2.088-2.074 1.439-.468 2.503-.311 3.165-.08.308.107.6-.194.5-.503L12.657.963s-1.786-.49-3.804.166zm-.09 11.077a4.173 4.173 0 00-2.513.035c-1.001.325-1.702.759-2.159 1.123L1.493 5.377c.286-.286.95-.834 2.13-1.217 1.111-.361 2.022-.052 2.623.302l2.515 7.742zm5.515-2.151c-.585-.026-1.407.035-2.408.361a4.169 4.169 0 00-2.054 1.448L7.299 4.121c.277-.64.832-1.426 1.944-1.786 1.179-.383 2.038-.33 2.438-.267l2.595 7.986z"/>
    </symbol>
    <symbol viewBox="0 0 16 16" id="icon-pencil" xmlns="http://www.w3.org/2000/svg">
        <path d="M11.752 2.129C10.237 1.026 9.158 1.05 8.749 1.116a.431.431 0 00-.28.178L2.963 8.892c-.222.306-.35.669-.37 1.046l-.237 4.499a.448.448 0 00.608.442l4.205-1.608c.354-.136.662-.372.885-.679l5.504-7.595a.447.447 0 00.08-.338c-.067-.421-.39-1.442-1.886-2.53zm-4.57 10.243l-1.634.631a.151.151 0 01-.177-.05c-.21-.268-.461-.534-.86-.824s-.729-.446-1.048-.565a.154.154 0 01-.101-.154l.098-1.749.439-.604s.983-.135 2.266.798c1.282.933 1.457 1.91 1.457 1.91l-.44.605z"/>
    </symbol>
    <symbol viewBox="0 0 16 16" id="icon-phone" xmlns="http://www.w3.org/2000/svg">
        <path d="M8.983 8.983c-1.266 1.266-2.734 2.477-3.314 1.897-.83-.83-1.342-1.553-3.172-.082s-.424 2.451.38 3.254c.928.928 4.387.05 7.806-3.369s4.294-6.878 3.366-7.806c-.804-.805-1.78-2.21-3.25-.38s-.749 2.342.082 3.172c.578.58-.633 2.047-1.898 3.314z"/>
    </symbol>
    <symbol viewBox="0 0 16 16" id="icon-pie-chart" xmlns="http://www.w3.org/2000/svg">
        <path d="M8.8.766v7.231a.802.802 0 01-.802.802H.767a7.279 7.279 0 0014.514-.8A7.28 7.28 0 008.801.765zm-1.6 0A7.28 7.28 0 00.766 7.2H7.2V.766z"/>
    </symbol>
    <symbol viewBox="0 0 16 16" id="icon-pin" xmlns="http://www.w3.org/2000/svg">
        <path d="M3.819 12.23l-1.684 2.6.179.85.848-.182L4.845 12.9a6.6 6.6 0 01-1.027-.67zm7.13-.908c.011-.023.018-.049.029-.074a2.41 2.41 0 00.11-.286c.005-.018.007-.035.013-.051.031-.109.058-.216.078-.326v-.017c.156-.935-.116-1.978-.738-2.921l.888-1.371c1.023.13 1.908-.127 2.334-.786.738-1.138-.16-3.034-2.004-4.234C9.813.054 7.721.004 6.984 1.141c-.427.659-.302 1.574.234 2.458l-.89 1.371c-1.111-.186-2.173-.013-2.962.512-.005.002-.01.003-.014.006a2.917 2.917 0 00-.266.203c-.014.011-.03.022-.041.033a2.35 2.35 0 00-.217.218c-.016.019-.038.036-.054.056a2.482 2.482 0 00-.232.308c-1.107 1.706-.162 4.289 2.106 5.767 2.27 1.478 5.008 1.291 6.113-.415a2.52 2.52 0 00.186-.337zm-.652-7.967c-.71-.462-1.056-1.19-.772-1.629.283-.438 1.089-.418 1.797.044.711.462 1.054 1.191.772 1.629s-1.086.418-1.797-.044z"/>
    </symbol>
    <symbol viewBox="0 0 16 16" id="icon-pinterest" xmlns="http://www.w3.org/2000/svg">
        <path d="M6.894 10.582C6.473 12.785 5.96 14.897 4.44 16c-.469-3.33.689-5.83 1.227-8.484-.918-1.544.11-4.65 2.044-3.884 2.38.941-2.061 5.738.92 6.338 3.113.625 4.383-5.4 2.453-7.359-2.788-2.83-8.117-.066-7.461 3.986.159.99 1.182 1.29.409 2.658-1.785-.395-2.318-1.803-2.249-3.68C1.893 2.503 4.542.353 7.2.055c3.361-.377 6.515 1.234 6.951 4.395.49 3.569-1.517 7.434-5.111 7.156-.974-.076-1.382-.559-2.146-1.023z"/>
    </symbol>
    <symbol viewBox="0 0 14 16" id="icon-play-circle" xmlns="http://www.w3.org/2000/svg">
        <path d="M6.857 1.143q1.866 0 3.442.92t2.496 2.496.92 3.442-.92 3.442-2.496 2.496-3.442.92-3.442-.92-2.496-2.496-.92-3.442.92-3.442 2.496-2.496 3.442-.92zm3.429 7.348q.286-.161.286-.491t-.286-.491L5.429 4.652q-.277-.17-.571-.009-.286.17-.286.5v5.714q0 .33.286.5.143.071.286.071.152 0 .286-.08z"/>
    </symbol>
    <symbol viewBox="0 0 16 16" id="icon-plus" xmlns="http://www.w3.org/2000/svg">
        <path d="M12.8 8c0 .442-.038.8-.481.8H8.8v3.519c0 .442-.358.481-.8.481s-.8-.039-.8-.481V8.8H3.681c-.442 0-.481-.358-.481-.8s.039-.8.481-.8H7.2V3.681c0-.442.358-.481.8-.481s.8.038.8.481V7.2h3.519c.442 0 .481.358.481.8z"/>
    </symbol>
    <symbol viewBox="0 0 16 16" id="icon-popup" xmlns="http://www.w3.org/2000/svg">
        <path d="M12.8 1.6H6.383c-.879 0-1.583.704-1.583 1.584V9.6c0 .88.72 1.6 1.6 1.6h6.4c.88 0 1.6-.72 1.6-1.6V3.2c0-.88-.72-1.6-1.6-1.6zm0 8H6.4V3.2h6.4v6.4zM3.2 8H1.6v4.8c0 .88.72 1.6 1.6 1.6H8v-1.6H3.2V8z"/>
    </symbol>
    <symbol viewBox="0 0 16 16" id="icon-popup-link" xmlns="http://www.w3.org/2000/svg">
        <path d="M12.8 1.6H6.383c-.879 0-1.583.704-1.583 1.584V9.6c0 .88.72 1.6 1.6 1.6h6.4c.88 0 1.6-.72 1.6-1.6V3.2c0-.88-.72-1.6-1.6-1.6zm0 8H6.4V3.2h6.4v6.4zM3.2 8H1.6v4.8c0 .88.72 1.6 1.6 1.6H8v-1.6H3.2V8z"/>
    </symbol>
    <symbol viewBox="0 0 16 16" id="icon-print" xmlns="http://www.w3.org/2000/svg">
        <path d="M1.201 4.8h13.6c.456 0 .382-.486.154-.566S12.201 3.2 11.76 3.2h-.56V.8H4.8v2.4h-.559c-.44 0-2.967.955-3.194 1.034s-.302.566.154.566zm13.999.8H.8c-.44 0-.8.36-.8.8v4c0 .441.36.8.8.8h1.826l-.706 4h12.159l-.706-4h1.826c.441 0 .8-.359.8-.8v-4c0-.44-.359-.8-.8-.8zm-11.518 8l.958-5.602h6.719l.959 5.602H3.681z"/>
    </symbol>
    <symbol viewBox="0 0 16 16" id="icon-quote" xmlns="http://www.w3.org/2000/svg">
        <path d="M4.252 2.721c-1.288 0-2.333 1.074-2.333 2.4s1.045 2.4 2.333 2.4c2.332 0 .778 4.639-2.333 4.639v1.12c5.551.001 7.726-10.559 2.333-10.559zm6.72 0c-1.287 0-2.332 1.074-2.332 2.4s1.045 2.4 2.332 2.4c2.333 0 .778 4.639-2.332 4.639v1.12c5.55.001 7.726-10.559 2.332-10.559z"/>
    </symbol>
    <symbol viewBox="0 0 11 16" id="icon-reorder-vert-icon" xmlns="http://www.w3.org/2000/svg">
        <path d="M1.6 4.8v8H0L2.7 16l2.6-3.2H3.8v-8H1.6zM8.3 0L5.6 3.2h1.6v8h2.2v-8h1.4L8.3 0z"/>
    </symbol>
    <symbol viewBox="0 0 16 16" id="icon-resize-100" xmlns="http://www.w3.org/2000/svg">
        <path d="M3.28 11.28L.8 13.6l1.6 1.6 2.32-2.48L6.4 14.4V9.6H1.6l1.68 1.68zM15.2 2.4L13.6.8l-2.32 2.48L9.6 1.6v4.8h4.8l-1.68-1.68L15.2 2.4z"/>
    </symbol>
    <symbol viewBox="0 0 16 16" id="icon-resize-full-screen" xmlns="http://www.w3.org/2000/svg">
        <path d="M5.59 8.79l-2.345 2.425L1.6 9.272v5.129h5.11l-1.944-1.665L7.19 10.39l-1.6-1.6zm3.7-7.19l1.944 1.665L8.81 5.611l1.6 1.6 2.345-2.425L14.4 6.729V1.6H9.29z"/>
    </symbol>
    <symbol viewBox="0 0 16 16" id="icon-save" xmlns="http://www.w3.org/2000/svg">
        <path d="M12.138 1.6H3.2c-.881 0-1.6.72-1.6 1.6v9.6c0 .88.719 1.6 1.6 1.6h9.6c.881 0 1.6-.72 1.6-1.6V4.102L12.138 1.6zM11.2 6.4c0 .439-.36.8-.8.8H5.6c-.44 0-.8-.361-.8-.8v-4h6.4v4zm-.8-3.2H8.8v3.2h1.6V3.2z"/>
    </symbol>
    <symbol viewBox="0 0 16 16" id="icon-search" xmlns="http://www.w3.org/2000/svg">
        <path d="M14.036 12.374l-3.023-3.023a4.919 4.919 0 00.718-2.568c0-2.734-2.369-5.102-5.102-5.102S1.68 3.896 1.68 6.63c0 2.733 2.369 5.102 5.102 5.102.91 0 1.76-.247 2.492-.675l3.039 3.041a.762.762 0 001.077 0l.754-.754c.297-.297.189-.672-.108-.969zM3.203 6.63c0-1.893 1.534-3.426 3.426-3.426s3.579 1.686 3.579 3.579c0 1.892-1.534 3.426-3.426 3.426S3.204 8.522 3.204 6.63z"/>
    </symbol>
    <symbol viewBox="0 0 20 20" id="icon-select-arrows" xmlns="http://www.w3.org/2000/svg">
        <path d="M10 1L5 8h10l-5-7zm0 18l5-7H5l5 7z"/>
    </symbol>
    <symbol viewBox="0 0 16 16" id="icon-share" xmlns="http://www.w3.org/2000/svg">
        <path d="M12 10.754c-.506 0-.963.197-1.31.514l-4.75-2.77c.037-.15.06-.307.06-.467s-.023-.316-.06-.466l4.7-2.743c.357.334.834.54 1.36.54 1.103 0 2-.897 2-2s-.897-2-2-2-2 .897-2 2c0 .16.023.317.06.466l-4.7 2.743A1.989 1.989 0 004 6.031c-1.103 0-2 .897-2 2s.897 2 2 2c.526 0 1.003-.206 1.36-.54l4.75 2.77c-.034.14-.054.286-.054.437a1.942 1.942 0 101.943-1.943z"/>
    </symbol>
    <symbol viewBox="0 0 16 16" id="icon-share-alternative" xmlns="http://www.w3.org/2000/svg">
        <path d="M7.2 10.4h1.6V3.2h1.6L8 0 5.6 3.2h1.6v7.2zm6.4-4.8h-2.4v1.6h1.6v7.2H3.2V7.2h1.6V5.6H2.4a.8.8 0 00-.8.8v8.8a.8.8 0 00.8.8h11.2a.8.8 0 00.8-.8V6.4a.8.8 0 00-.8-.8z"/>
    </symbol>
    <symbol viewBox="0 0 16 16" id="icon-shopping-cart" xmlns="http://www.w3.org/2000/svg">
        <path d="M10.4 13.6a1.6 1.6 0 103.2 0 1.6 1.6 0 00-3.2 0zm-8 0a1.6 1.6 0 103.2 0 1.6 1.6 0 00-3.2 0zm2.838-3.862l8.854-2.53A.45.45 0 0014.4 6.8V2.4H3.2V1.12A.321.321 0 002.881.8H.319A.32.32 0 000 1.12V2.4h1.6l1.528 7.166.072.754v1.319c0 .175.144.32.32.32h10.56c.176 0 .32-.146.32-.32V10.4H5.402c-.92 0-.939-.441-.164-.662z"/>
    </symbol>
    <symbol viewBox="0 0 16 16" id="icon-skype" xmlns="http://www.w3.org/2000/svg">
        <path d="M14.937 9.63a7.45 7.45 0 00.162-1.55c0-3.989-3.144-7.223-7.022-7.223-.409 0-.81.038-1.2.106A3.974 3.974 0 004.711.321C2.462.321.639 2.196.639 4.511c0 .772.205 1.497.559 2.118a7.463 7.463 0 00-.142 1.452c0 3.989 3.144 7.223 7.02 7.223.441 0 .87-.041 1.286-.12a3.964 3.964 0 001.925.497c2.249 0 4.072-1.875 4.072-4.189a4.266 4.266 0 00-.422-1.862zm-3.258 1.903c-.325.472-.805.847-1.426 1.113-.615.264-1.354.397-2.194.397-1.008 0-1.854-.182-2.514-.542a3.328 3.328 0 01-1.156-1.054c-.298-.444-.449-.883-.449-1.306a.92.92 0 01.292-.682c.192-.186.439-.282.733-.282.241 0 .45.075.618.222.162.141.3.35.411.618a3.7 3.7 0 00.404.736c.138.187.336.346.588.469.254.123.598.186 1.02.186.58 0 1.056-.126 1.414-.378.35-.247.52-.541.52-.902 0-.286-.089-.51-.272-.686a1.936 1.936 0 00-.749-.425 14.212 14.212 0 00-1.289-.328c-.728-.161-1.346-.351-1.839-.566-.504-.22-.91-.526-1.206-.91-.3-.386-.454-.874-.454-1.446 0-.546.16-1.038.477-1.462.314-.42.772-.748 1.362-.974.582-.222 1.277-.334 2.061-.334.626 0 1.178.075 1.638.222.462.149.853.349 1.159.595.31.249.539.514.683.789.146.28.22.556.22.825a.997.997 0 01-.289.697.947.947 0 01-.72.31c-.259 0-.464-.066-.605-.194-.131-.118-.269-.306-.419-.574-.175-.342-.387-.613-.63-.802-.236-.186-.63-.28-1.173-.28-.503 0-.913.105-1.215.31-.294.199-.436.426-.436.693 0 .166.046.303.141.42.1.126.241.236.418.328.184.096.374.171.564.226.195.056.523.138.972.246.569.125 1.09.266 1.551.417.468.154.872.344 1.202.564.336.226.603.516.791.861.19.347.286.775.286 1.272a2.794 2.794 0 01-.49 1.613z"/>
    </symbol>
    <symbol viewBox="0 0 20 20" id="icon-sound-mix" xmlns="http://www.w3.org/2000/svg">
        <path d="M5 1.6c0-.553-.448-.6-1-.6-.553 0-1 .047-1 .6V10h2V1.6zM3 18.4c0 .551.447.6 1 .6.552 0 1-.049 1-.6V15H3v3.4zM6.399 11h-4.8C1.046 11 1 11.448 1 12v1c0 .553.046 1 .599 1H6.4c.55 0 .6-.447.6-1v-1c0-.552-.05-1-.601-1zm12 1h-4.801c-.552 0-.598.448-.598 1v1c0 .553.046 1 .599 1H18.4c.55 0 .6-.447.6-1v-1c0-.552-.05-1-.601-1zM13 7c0-.552-.05-1-.601-1h-4.8C7.046 6 7 6.448 7 7v1c0 .553.046 1 .599 1H12.4c.55 0 .6-.447.6-1V7zm-2-5.4c0-.553-.448-.6-1-.6-.553 0-1 .047-1 .6V5h2V1.6zM9 18.4c0 .551.447.6 1 .6.552 0 1-.049 1-.6V10H9v8.4zm8-16.8c0-.553-.448-.6-1-.6-.553 0-1 .047-1 .6V11h2V1.6zm-2 16.8c0 .551.447.6 1 .6.552 0 1-.049 1-.6V16h-2v2.4z"/>
    </symbol>
    <symbol viewBox="0 0 16 16" id="icon-soundcloud" xmlns="http://www.w3.org/2000/svg">
        <path d="M.538 10.444L.8 9.323.538 8.165c-.007-.034-.074-.061-.153-.061-.082 0-.147.026-.153.061L0 9.323l.231 1.12c.006.036.072.061.153.061s.146-.024.154-.06zm1.64.622L2.4 9.335l-.222-2.678c-.007-.067-.091-.122-.191-.122-.102 0-.186.054-.19.122L1.6 9.335l.197 1.731c.005.069.089.122.19.122.1 0 .184-.053.191-.122zm1.636-.028L4 9.336 3.814 5.77c-.005-.085-.103-.15-.226-.15s-.22.066-.225.15l-.164 3.566.164 1.703c.005.082.103.149.225.149s.221-.066.226-.15zm1.634-.025L5.6 9.336l-.152-3.592c-.004-.098-.117-.177-.256-.177-.141 0-.253.078-.257.177L4.8 9.336l.136 1.677c.003.098.116.177.256.177s.252-.077.256-.177zm1.632-.023l.12-1.653-.12-4.119c-.003-.114-.131-.204-.286-.204s-.283.092-.286.205L6.4 9.336l.108 1.654c.002.113.13.205.286.205s.283-.09.286-.205zm1.142.207l5.716.003c1.139 0 2.062-.894 2.062-1.995s-.923-1.994-2.062-1.994a2.15 2.15 0 00-.797.154c-.164-1.797-1.722-3.206-3.623-3.206-.465 0-.918.089-1.318.238-.157.059-.198.118-.199.236v6.328a.245.245 0 00.222.236z"/>
    </symbol>
    <symbol viewBox="0 0 16 16" id="icon-star" xmlns="http://www.w3.org/2000/svg">
        <path d="M8 1.04l1.91 5.378h5.13l-4.186 3.158 1.497 5.542L8 11.795l-4.35 3.323 1.496-5.542L.96 6.418h5.13L8.001 1.04z"/>
    </symbol>
    <symbol viewBox="0 0 16 16" id="icon-star-outlined" xmlns="http://www.w3.org/2000/svg">
        <path d="M15.04 6.418H9.91L8 1.04 6.089 6.418H.959l4.186 3.158-1.497 5.543L8 11.796l4.35 3.323-1.495-5.543 4.185-3.158zM8 10.226l-2.411 2 .994-2.85-2.281-1.84 2.818.081L8 4.385l.879 3.232 2.817-.081-2.281 1.84.994 2.85-2.41-2z"/>
    </symbol>
    <symbol viewBox="0 0 16 16" id="icon-suitcase" xmlns="http://www.w3.org/2000/svg">
        <path d="M14.4 3.2h-.8v12h.8c.88 0 1.6-.72 1.6-1.6V4.8c0-.88-.72-1.6-1.6-1.6zM0 4.8v8.8c0 .88.719 1.6 1.6 1.6h.8v-12h-.8C.719 3.2 0 3.92 0 4.8zm10.8-3.275C10.255 1.272 9.289.8 7.985.8c-1.306 0-2.24.472-2.785.725V3.2h-2v12h9.6v-12h-2V1.525zM9.6 3.2H6.4V2.131c.427-.184.862-.372 1.585-.372s1.189.187 1.615.372V3.2z"/>
    </symbol>
    <symbol viewBox="0 0 23 17" id="icon-sv-flag" xmlns="http://www.w3.org/2000/svg">
        <path d="M0 0h23v17H0z"/>
        <path d="M0 6.8h23v3.3H0z"/>
        <path d="M7.3 0h3.3v17H7.3z"/>
    </symbol>
    <symbol viewBox="0 0 16 16" id="icon-text" xmlns="http://www.w3.org/2000/svg">
        <path d="M12.4 8.8H3.6c-.22 0-.4.18-.4.4v.8c0 .221.18.4.4.4h8.8a.4.4 0 00.4-.4v-.8a.4.4 0 00-.4-.4zm0-3.2H3.6c-.22 0-.4.18-.4.4v.8c0 .221.18.4.4.4h8.8a.4.4 0 00.4-.4V6a.4.4 0 00-.4-.4zm-4 6.4H3.6c-.22 0-.4.18-.4.4v.8c0 .221.18.4.4.4h4.8a.4.4 0 00.4-.4v-.8a.4.4 0 00-.4-.4zm4-9.6H3.6c-.22 0-.4.18-.4.4v.8c0 .221.18.4.4.4h8.8a.4.4 0 00.4-.4v-.8a.4.4 0 00-.4-.4z"/>
    </symbol>
    <symbol viewBox="0 0 20 20" id="icon-text-document" xmlns="http://www.w3.org/2000/svg">
        <path d="M16 1H4a1 1 0 00-1 1v16a1 1 0 001 1h12a1 1 0 001-1V2a1 1 0 00-1-1zm-1 16H5V3h10v14zM13 5H7v2h6V5zm0 8H7v2h6v-2zm0-4H7v2h6V9z"/>
    </symbol>
    <symbol viewBox="0 0 16 16" id="icon-thumbs-down" xmlns="http://www.w3.org/2000/svg">
        <path d="M5.082 10.11c.106.285-2.831 2.907-1.118 5.033.401.497 1.761-2.38 3.692-3.682 1.065-.719 3.544-2.249 3.544-3.094V2.893C11.2 1.876 7.269.799 4.282.799 3.187.799 1.6 7.66 1.6 8.75c0 1.094 3.377 1.074 3.482 1.359zM12 10.034c.526 0 2.4-.32 2.4-2.498V3.658c0-2.177-1.874-2.417-2.4-2.417s.8.458.8 1.808v5.098c0 1.414-1.326 1.887-.8 1.887z"/>
    </symbol>
    <symbol viewBox="0 0 16 16" id="icon-thumbs-up" xmlns="http://www.w3.org/2000/svg">
        <path d="M10.918 5.89c-.106-.284 2.831-2.907 1.118-5.033-.401-.497-1.761 2.38-3.692 3.682-1.066.718-3.545 2.248-3.545 3.094v5.474c0 1.017 3.931 2.094 6.918 2.094 1.095 0 2.682-6.861 2.682-7.95 0-1.094-3.377-1.075-3.482-1.36zM4 5.966c-.526 0-2.4.32-2.4 2.498v3.878c0 2.177 1.874 2.417 2.4 2.417s-.8-.458-.8-1.808V7.853c0-1.414 1.326-1.887.8-1.887z"/>
    </symbol>
    <symbol viewBox="0 0 16 16" id="icon-ticket" xmlns="http://www.w3.org/2000/svg">
        <path d="M3.925 9.233l2.841 2.842 5.214-5.214L9.138 4.02 3.925 9.233zm11.358-3.902l-1.209-1.21A1.622 1.622 0 0111.68 2.7c0-.282.071-.546.197-.775L10.668.715a.815.815 0 00-1.146 0L.714 9.523a.815.815 0 000 1.146l1.21 1.208a1.619 1.619 0 012.197 2.198l1.21 1.208a.813.813 0 001.146 0l8.806-8.806a.813.813 0 000-1.146zm-8.517 8.044L2.625 9.233 9.139 2.72l4.141 4.141-6.514 6.514z"/>
    </symbol>
    <symbol viewBox="0 0 16 16" id="icon-tools" xmlns="http://www.w3.org/2000/svg">
        <path d="M2.508 5.512c.746-.58 1.366-.18 2.192.777.093.108.218-.018.289-.08S6.15 5.165 6.203 5.12c.053-.047.117-.135.033-.234a27.04 27.04 0 01-.594-.761C4.196 2.233 9.599.95 8.769.93 8.347.919 6.652.899 6.399.927c-1.026.108-2.315 1.067-2.964 1.514-.849.581-1.166.922-1.218.969-.24.21-.038.694-.474 1.075-.46.402-.747.098-1.014.331-.132.117-.502.394-.607.486-.106.094-.126.251-.017.377 0 0 1.011 1.117 1.096 1.216.084.098.313.182.454.057s.506-.442.566-.498c.062-.053-.04-.689.286-.942zm4.566.414c-.096-.111-.215-.114-.318-.023L5.609 6.905a.232.232 0 00-.022.32l6.635 7.551a.425.425 0 00.601.042l.776-.65a.432.432 0 00.042-.606L7.074 5.927zm8.848-3.214c-.059-.395-.264-.313-.37-.146-.106.169-.577.882-.77 1.205-.192.32-.666.953-1.547.328-.918-.649-.599-1.102-.439-1.406a32.33 32.33 0 01.726-1.272c.071-.108-.012-.422-.297-.29s-2.018.82-2.258 1.808c-.246 1.005.206 1.903-.68 2.795l-1.074 1.12 1.079 1.253 1.323-1.256c.315-.317.989-.625 1.598-.486 1.306.295 2.019-.195 2.449-1.006.386-.725.322-2.251.262-2.646zM2.191 13.642a.431.431 0 000 .606l.761.744c.166.167.43.097.597-.07l3.926-3.859-1.202-1.371-4.081 3.95z"/>
    </symbol>
    <symbol viewBox="0 0 16 16" id="icon-triangle-down" xmlns="http://www.w3.org/2000/svg">
        <path d="M4 4.8h8L8 12 4 4.8z"/>
    </symbol>
    <symbol viewBox="0 0 16 16" id="icon-triangle-left" xmlns="http://www.w3.org/2000/svg">
        <path d="M11.2 4v8L4 8l7.2-4z"/>
    </symbol>
    <symbol viewBox="0 0 16 16" id="icon-triangle-right" xmlns="http://www.w3.org/2000/svg">
        <path d="M12 8l-7.2 4V4L12 8z"/>
    </symbol>
    <symbol viewBox="0 0 16 16" id="icon-triangle-up" xmlns="http://www.w3.org/2000/svg">
        <path d="M12 11.2H4L8 4l4 7.2z"/>
    </symbol>
    <symbol viewBox="0 0 16 16" id="icon-trophy" xmlns="http://www.w3.org/2000/svg">
        <path d="M8.944 11.485c0-1.161.88-1.803 2.315-2.754C13.014 7.566 15.2 6.119 15.2 2.683a.562.562 0 00-.567-.559h-2.744C11.502 1.407 10.346.64 8 .64c-2.347 0-3.502.767-3.89 1.484H1.365a.562.562 0 00-.566.559c0 3.436 2.184 4.883 3.941 6.047 1.435.95 2.315 1.593 2.315 2.754v1.049c-1.507.167-2.615.725-2.615 1.389 0 .795 1.594 1.439 3.559 1.439s3.559-.644 3.559-1.439c0-.664-1.108-1.222-2.615-1.389v-1.048zm2.222-4.045c.453-.959.813-2.261.87-4.197h2.008c-.192 2.161-1.49 3.251-2.878 4.197zM8 1.621c2.186-.002 3.039.892 3.038 1.223 0 .334-.853 1.226-3.038 1.228-2.186-.001-3.039-.893-3.039-1.227C4.96 2.514 5.815 1.619 8 1.621zM1.956 3.243h2.007c.058 1.936.417 3.238.871 4.197-1.389-.946-2.687-2.036-2.878-4.197z"/>
    </symbol>
    <symbol viewBox="0 0 16 16" id="icon-tumblr" xmlns="http://www.w3.org/2000/svg">
        <path d="M12.48 14.557c-.622.297-1.184.505-1.687.625a7.16 7.16 0 01-1.634.178c-.665 0-1.253-.086-1.764-.254a3.814 3.814 0 01-1.308-.726c-.361-.316-.611-.65-.75-1.003s-.209-.869-.209-1.541V6.672H3.521V4.589a4.224 4.224 0 001.468-.808 4.04 4.04 0 00.982-1.264c.246-.49.415-1.117.509-1.876h2.068v3.722h3.451v2.31H8.548v3.775c0 .853.045 1.402.134 1.644s.255.436.498.58c.322.195.69.294 1.105.294.736 0 1.469-.242 2.197-.726v2.319z"/>
    </symbol>
    <symbol viewBox="0 0 16 16" id="icon-twitter" xmlns="http://www.w3.org/2000/svg">
        <path d="M13.853 4.997c.006.13.009.261.009.39 0 3.992-3.038 8.594-8.592 8.594-1.706 0-3.293-.5-4.63-1.358a6.057 6.057 0 004.47-1.25 3.023 3.023 0 01-2.821-2.097 3.022 3.022 0 001.364-.052 3.022 3.022 0 01-2.422-2.962v-.038c.407.226.874.362 1.368.378a3.02 3.02 0 01-.934-4.032A8.571 8.571 0 007.89 5.726a3.018 3.018 0 012.941-3.707c.869 0 1.654.366 2.205.953a6.077 6.077 0 001.918-.733 3.03 3.03 0 01-1.328 1.67 6.042 6.042 0 001.734-.475 6.1 6.1 0 01-1.507 1.562z"/>
    </symbol>
    <symbol viewBox="0 0 16 16" id="icon-typing" xmlns="http://www.w3.org/2000/svg">
        <path d="M12.8 3.2H3.2c-.881 0-1.6.72-1.6 1.6v5.6c0 .88.719 1.6 1.6 1.6h3.2l3.2 2.4V12h3.2c.88 0 1.6-.72 1.6-1.6V4.8c0-.88-.72-1.6-1.6-1.6zm-8 5.28a.88.88 0 110-1.76.88.88 0 010 1.76zm3.2 0a.88.88 0 110-1.76.88.88 0 010 1.76zm3.2 0a.88.88 0 110-1.76.88.88 0 010 1.76z"/>
    </symbol>
    <symbol id="icon-up-down" viewBox="0 0 32 32" xml:space="preserve" xmlns="http://www.w3.org/2000/svg">
        <path class="fhst0" d="M5.3 12.7h21.4L16 .1zm21.4 6.6H5.3L16 31.9z"/>
    </symbol>
    <symbol viewBox="0 0 16 16" id="icon-upload" xmlns="http://www.w3.org/2000/svg">
        <path d="M6.4 9.6h3.2V4.8H12l-4-4-4 4h2.4v4.8zm9.07 1.226c-.168-.179-1.289-1.378-1.609-1.691a1.203 1.203 0 00-.834-.334h-1.406l2.451 2.395h-2.835a.22.22 0 00-.192.106l-.653 1.498H5.605l-.653-1.498a.22.22 0 00-.192-.106H1.925l2.45-2.395H2.97c-.318 0-.621.127-.834.334-.32.314-1.441 1.513-1.609 1.691-.391.417-.606.749-.504 1.159l.449 2.459c.102.411.553.749 1.002.749h13.05c.449 0 .899-.338 1.002-.749l.449-2.459c.101-.41-.114-.742-.506-1.159z"/>
    </symbol>
    <symbol viewBox="0 0 16 16" id="icon-upload-to-cloud" xmlns="http://www.w3.org/2000/svg">
        <path d="M12.17 5.311c-.221 0-.437.02-.647.054-.525-1.716-2.15-2.966-4.076-2.966-2.351 0-4.256 1.862-4.256 4.159 0 .205.016.406.046.605a2.77 2.77 0 00-.343-.022C1.296 7.141 0 8.407 0 9.969s1.295 2.83 2.894 2.83H6.4v-3.2h-2l3.6-4 3.6 4h-2v3.2h2.57c2.114 0 3.83-1.677 3.83-3.744 0-2.069-1.715-3.745-3.83-3.745z"/>
    </symbol>
    <symbol viewBox="0 0 20 20" id="icon-user" xmlns="http://www.w3.org/2000/svg">
        <path d="M7.8 2.3C6.7 3 6.4 4.1 6.5 4.7c.1.8.2 1.8.2 1.8s-.3.2-.3.9c.1 1.7.7 1 .8 1.7.3 1.8.9 1.5.9 2.5 0 1.6-.7 2.4-2.8 3.3C3.2 15.8 1 17 1 19v1h18v-1c0-2-2.2-3.2-4.3-4.1-2.1-.9-2.8-1.7-2.8-3.3 0-1 .6-.7.9-2.5.1-.8.7 0 .8-1.7 0-.7-.3-.9-.3-.9s.2-1 .2-1.8c.1-1.4-1.2-2.5-2.1-2.9s-2.5-.4-3.6.5z"/>
    </symbol>
    <symbol viewBox="0 0 16 16" id="icon-users" xmlns="http://www.w3.org/2000/svg">
        <path d="M12.791 15.303c0-1.797-1.75-2.711-3.454-3.446-1.698-.731-2.241-1.347-2.241-2.667 0-.791.518-.534.746-1.985.096-.602.554-.01.642-1.383 0-.547-.25-.683-.25-.683s.127-.81.177-1.434A2.471 2.471 0 006.57 1.229C6.304.956 6.124.523 6.944.09 5.152.007 4.735.944 3.781 1.634c-.812.605-1.031 1.562-.992 2.072.052.624.178 1.434.178 1.434s-.251.136-.251.683c.088 1.374.547.782.642 1.383.227 1.451.746 1.194.746 1.985 0 1.32-.17 1.768-1.869 2.499C.53 12.424 0 13.6.009 15.303.011 15.813 0 16 0 16h12.8s-.009-.187-.009-.697zm2.031-4.611c-.908-.366-1.284-.802-1.284-1.653 0-.513.334-.346.482-1.282.062-.387.358-.006.414-.892 0-.353-.162-.441-.162-.441s.082-.525.114-.927c.04-.502-.291-1.798-1.814-1.798s-1.854 1.296-1.815 1.798c.034.402.115.927.115.927s-.162.087-.162.441c.057.886.353.505.414.892.147.938.482.77.482 1.282 0 .851-.35 1.25-1.447 1.722-.055.023-.096.054-.146.082 1.312.57 3.381 1.553 3.87 3.558h2.116v-1.854c0-.8-.218-1.467-1.178-1.854z"/>
    </symbol>
    <symbol viewBox="0 0 16 16" id="icon-v-card" xmlns="http://www.w3.org/2000/svg">
        <path d="M15.2 2.4H.8a.8.8 0 00-.8.8v9.6a.8.8 0 00.8.8h14.4a.8.8 0 00.8-.8V3.2a.8.8 0 00-.8-.8zm-4.8 3.2h3.2v.8h-3.2v-.8zm-1.6 6.242a1.802 1.802 0 00-.423-.242c-.944-.406-2.369-1.008-2.369-1.741 0-.441.287-.297.414-1.103.053-.334.308-.006.356-.769 0-.304-.139-.38-.139-.38s.07-.45.098-.797c.029-.362-.177-1.44-1.022-1.678-.149-.15-.249-.089.206-.33-.995-.047-1.227.474-1.757.857a1.391 1.391 0 00-.551 1.151c.03.346.1.797.1.797s-.14.075-.14.379c.049.763.304.434.356.769.126.806.415.662.415 1.103 0 .733-1.425 1.334-2.369 1.741-.162.07-.279.138-.377.208V3.999h7.2v7.842zM14.4 8.8h-4V8h4v.8z"/>
    </symbol>
    <symbol viewBox="0 0 16 16" id="icon-vimeo" xmlns="http://www.w3.org/2000/svg">
        <path d="M15.128 4.672c-.805 4.618-5.3 8.528-6.652 9.422-1.352.892-2.586-.358-3.034-1.305-.513-1.078-2.047-6.925-2.45-7.409s-1.608.484-1.608.484l-.585-.781s2.449-2.98 4.313-3.353c1.976-.394 1.973 3.091 2.448 5.026C8.019 8.63 8.329 9.7 8.73 9.7s1.17-1.044 2.01-2.644c.842-1.603-.036-3.018-1.681-2.011.658-4.022 6.873-4.989 6.068-.373z"/>
    </symbol>
    <symbol viewBox="0 0 16 16" id="icon-warning" xmlns="http://www.w3.org/2000/svg">
        <path d="M15.609 14.384L8.483 1.078a.556.556 0 00-.966 0L.392 14.384a.54.54 0 00.004.544c.1.169.282.272.478.272h14.251a.554.554 0 00.478-.272.542.542 0 00.005-.544zM8.8 13.6H7.2V12h1.6v1.6zm0-2.8H7.2V5.6h1.6v5.2z"/>
    </symbol>
    <symbol viewBox="0 0 21 16" id="icon-wikipedia" xmlns="http://www.w3.org/2000/svg">
        <path d="M13.339 14.634l-2.634-6.205q-.223.438-1.415 2.728t-1.772 3.478q-.009.009-.246.004t-.237-.013q-.732-1.723-2.281-5.241T2.437 4.064q-.188-.446-.594-.96t-.924-.897-.911-.384l-.004-.214Q0 1.44 0 1.368h5.205v.446q-.348.018-.71.143t-.594.384-.089.571q.232.527 1.933 4.455t2.103 4.821q.277-.545 1.25-2.379t1.17-2.21q-.17-.348-1.125-2.509T7.929 2.456q-.339-.616-1.795-.634v-.446l4.58.009v.42q-.536.018-.835.223t-.112.616q.295.625.777 1.692t.768 1.674q.982-1.911 1.545-3.241.214-.491-.089-.71t-1.152-.237q.009-.063.009-.223v-.214q.571 0 1.522-.004t1.607-.009.826-.004v.438q-.554.018-1.063.295t-.804.723L11.811 6.77q.116.295 1.138 2.589t1.085 2.446l3.937-9.08q-.125-.339-.442-.558t-.58-.281-.496-.071v-.446l4.107.036.009.018-.009.393q-1.241.036-1.795 1.295-4.696 10.857-4.991 11.527h-.438z"/>
    </symbol>
    <symbol viewBox="0 0 14 16" id="icon-youtube" xmlns="http://www.w3.org/2000/svg">
        <path d="M8.67 11.107v1.884q0 .598-.348.598-.205 0-.402-.196v-2.688q.196-.196.402-.196.348 0 .348.598zm3.018.009v.411h-.804v-.411q0-.607.402-.607t.402.607zM3.063 9.17h.955v-.839H1.232v.839h.938v5.08h.893V9.17zm2.571 5.08h.795V9.839h-.795v3.375q-.268.375-.509.375-.161 0-.188-.188-.009-.027-.009-.313v-3.25h-.795v3.491q0 .438.071.652.107.33.518.33.429 0 .911-.545v.482zm3.83-1.321V11.17q0-.652-.08-.884-.152-.5-.634-.5-.446 0-.83.482V8.33h-.795v5.92h.795v-.429q.402.491.83.491.482 0 .634-.491.08-.241.08-.893zm3.018-.09v-.116h-.813q0 .455-.018.545-.063.321-.357.321-.411 0-.411-.616v-.777h1.598v-.92q0-.705-.241-1.036-.348-.455-.946-.455-.607 0-.955.455-.25.33-.25 1.036v1.545q0 .705.259 1.036.348.455.964.455.643 0 .964-.473.161-.241.188-.482.018-.08.018-.518zM7.054 4.688V2.813q0-.616-.384-.616t-.384.616v1.875q0 .625.384.625t.384-.625zm6.419 6.705q0 2.089-.232 3.125-.125.527-.518.884t-.911.411q-1.643.188-4.955.188t-4.955-.188q-.518-.054-.915-.411t-.513-.884q-.232-1-.232-3.125 0-2.089.232-3.125.125-.527.518-.884t.92-.42q1.634-.179 4.946-.179t4.955.179q.518.063.915.42t.513.884q.232 1 .232 3.125zM4.563 0h.911l-1.08 3.563v2.42h-.893v-2.42q-.125-.661-.545-1.893-.33-.92-.58-1.67h.946l.634 2.348zm3.303 2.973v1.563q0 .723-.25 1.054-.33.455-.946.455-.598 0-.938-.455-.25-.339-.25-1.054V2.973q0-.714.25-1.045.339-.455.938-.455.616 0 .946.455.25.33.25 1.045zm2.991-1.446v4.455h-.813v-.491q-.473.554-.92.554-.411 0-.527-.33-.071-.214-.071-.67V1.527h.813v3.277q0 .295.009.313.027.196.188.196.241 0 .509-.384V1.527h.813z"/>
    </symbol>
    <symbol viewBox="0 0 16 16" id="icon-youtube-icon" xmlns="http://www.w3.org/2000/svg">
        <path d="M8 1.84C.138 1.84 0 2.539 0 8s.138 6.16 8 6.16 8-.699 8-6.16-.138-6.16-8-6.16zm2.564 6.427L6.972 9.944c-.314.146-.572-.018-.572-.365V6.421c0-.346.258-.51.572-.365l3.592 1.677c.314.147.314.387 0 .534z"/>
    </symbol>
    <symbol viewBox="0 0 16 16" id="icon-youtube-icon-blue" xmlns="http://www.w3.org/2000/svg">
        <path d="M8 1.84C.138 1.84 0 2.539 0 8s.138 6.16 8 6.16 8-.699 8-6.16-.138-6.16-8-6.16zm2.564 6.427L6.972 9.944c-.314.146-.572-.018-.572-.365V6.421c0-.346.258-.51.572-.365l3.592 1.677c.314.147.314.387 0 .534z"/>
    </symbol>
</svg>